<svg enable-background="new 0 0 40 39" viewBox="0 0 40 39" xmlns="http://www.w3.org/2000/svg"><g fill="#fff"><path d="m38.1 39h-36.3c-.7 0-1.2-.6-1.2-1.2v-36.3c0-.7.6-1.2 1.2-1.2s1.2.6 1.2 1.2v35h35c.7 0 1.2.6 1.2 1.2s-.4 1.3-1.1 1.3z"/><path d="m38.3 13.1h-32.2c-.6 0-1-.4-1-1v-6.4c0-.6.4-1 1-1h32.2c.6 0 1 .4 1 1v6.3c0 .6-.5 1.1-1 1.1z"/><path d="m30.5 23.8h-24.4c-.6 0-1-.4-1-1v-6.3c0-.6.4-1 1-1h24.4c.6 0 1 .4 1 1v6.3c0 .5-.5 1-1 1z"/><path d="m21.2 34.5h-15.1c-.6 0-1-.4-1-1v-6.3c0-.6.4-1 1-1h15.1c.6 0 1 .4 1 1v6.3c0 .5-.5 1-1 1z"/></g></svg>