<svg enable-background="new 0 0 21 12" viewBox="0 0 21 12" xmlns="http://www.w3.org/2000/svg"><g fill="#fff" transform="translate(-1572.354 -715.199)"><path d="m1582.7 725.8v.4c0 .1-.1.3-.1.4s-.1.2-.2.3-.3.2-.4.2c-.1.1-.3.1-.4 0-.1 0-.3-.1-.4-.1-.1-.1-.3-.2-.3-.4-.1-.1-.1-.3-.2-.4 0-.2 0-.3 0-.5v-1.7-2.5-.7c0-.1 0-.2 0-.3s0-.3 0-.5c0 0 0-.1 0-.2s0-.3 0-.7c-.4.7-.8 1.3-1.1 1.7-.2.3-.4.7-.7 1-.1.2-.3.3-.5.5-.1.1-.3.1-.4.1s-.2 0-.3 0-.2-.1-.3-.2-.2-.1-.2-.2c-.1-.1-.1-.1-.2-.2-.3-.3-.6-.7-.9-1.2-.4-.5-.7-1.1-1-1.7v.5 1.3 1.7 1.7s0 .9 0 1.3v.5c0 .2 0 .4-.1.5-.1.2-.2.3-.4.4s-.3.2-.5.2-.4-.1-.6-.2c-.1-.1-.3-.2-.3-.4-.1-.1-.1-.3-.1-.5s0-.3 0-.4 0-.3 0-.4v-1.3-2.5-2.2c0-.9 0-1.9.1-2.8 0-.1 0-.2 0-.3s.1-.2.1-.3c.1-.2.2-.3.3-.4.2-.1.3-.1.5-.1h.2s.1 0 .2 0c.2.1.4.2.6.4.1.2.3.4.4.5s.2.2.3.4c.1.1.2.3.3.4s.2.3.3.4.2.3.2.4c.3.5.5.9.8 1.3s.4.7.6 1c0 0 .1-.1.1-.1 0-.1.1-.1.1-.2s.1-.1.1-.2.1-.1.1-.2c.1-.2.2-.3.3-.5s.2-.3.4-.5.3-.4.4-.6.3-.5.5-.8c.1-.1.2-.3.3-.5s.3-.4.4-.5c.1-.2.3-.3.5-.5.1-.1.3-.2.5-.2h.2s.1 0 .2 0 .3.1.4.2.2.2.2.3.1.2.1.4v.2s0 .1 0 .2v1.8s0 1.2 0 1.8v2.3s0 1.6 0 2.3v.5c-.1.3-.1.5-.1.6z"/><path d="m1592.8 716.1v.2c0 .1 0 .1-.1.2 0 .1-.1.3-.1.4-.1.1-.1.3-.2.4 0 .1-.1.1-.1.2s-.1.1-.1.2l-.2.3-2.1 3-.4.5v4.4.2.2.2c0 .1 0 .1-.1.2v.1c-.1.1-.2.2-.3.3-.3.1-.5.2-.8.1-.1 0-.3-.1-.4-.2-.1 0-.1-.1-.1-.1s-.1-.1-.1-.1 0-.1-.1-.2c0-.1 0-.1 0-.2 0 0 0-.1 0-.2v-4.6l-.4-.6-2.1-3-.2-.3c-.1-.1-.1-.2-.2-.3s-.2-.3-.2-.4-.1-.1-.1-.2-.1-.1-.1-.2 0-.2 0-.3.1-.3.2-.4.2-.2.3-.2c.2-.1.3-.2.5-.1.1 0 .2 0 .3.1.1 0 .2.1.3.1.1.1.2.2.3.2.1.1.2.2.3.3s.2.2.2.3c.1.1.2.2.2.3v.1c.3.4.5.7.7 1s.5.7.7 1c0 0 .1.1.1.1 0 .1.1.1.1.2 0-.1.1-.1.1-.2 0 0 .1-.1.1-.1.3-.4.5-.7.7-1s.5-.7.7-1v-.1c.1-.1.2-.2.2-.3.1-.1.2-.2.2-.3.2-.2.3-.4.6-.5.2-.1.3-.2.5-.2s.4 0 .5.1c.1 0 .1.1.2.1s.1.1.2.1c.2 0 .2.1.3.2z"/></g></svg>