<svg enable-background="new 0 0 233 252" viewBox="0 0 233 252" xmlns="http://www.w3.org/2000/svg"><path d="m68.32 118.52-67.67 95.47 39.65-2.24 11.01 38.15 67.66-95.47z" fill="#f00"/><path d="m48.03 147.17-8.23 11.61c13.59 15.99 32.54 27.27 54.09 31.06l7.26-10.24c-21.33-4.36-39.96-16.1-53.12-32.43z" fill="#d80000"/><path d="m164.06 118.52 67.67 95.47-39.64-2.24-11.02 38.15-67.66-95.47z" fill="#f00"/><path d="m184.36 147.17 8.23 11.61c-13.59 15.99-32.54 27.27-54.09 31.06l-7.26-10.24c21.33-4.36 39.95-16.1 53.12-32.43z" fill="#d80000"/><circle cx="116.19" cy="94.39" fill="#ffe98c" r="91.99"/><circle cx="116.19" cy="94.39" fill="#ffd100" r="78.19"/><path d="m49.74 103.09c0-43.18 35.01-78.19 78.19-78.19 14.78 0 28.6 4.11 40.39 11.23-13.83-12.39-32.1-19.93-52.13-19.93-43.18 0-78.19 35.01-78.19 78.19 0 28.4 15.15 53.26 37.8 66.96-15.99-14.32-26.06-35.11-26.06-58.26z" fill="#ffab00"/><path d="m123.06 51.56 10.7 21.68c.66 1.34 1.95 2.28 3.43 2.49l23.93 3.48c3.74.54 5.23 5.13 2.52 7.77l-17.32 16.88c-1.07 1.05-1.56 2.55-1.31 4.03l4.09 23.83c.64 3.72-3.27 6.56-6.61 4.8l-21.4-11.25c-1.33-.7-2.91-.7-4.24 0l-21.4 11.25c-3.34 1.76-7.25-1.08-6.61-4.8l4.09-23.83c.25-1.48-.24-2.99-1.31-4.03l-17.32-16.88c-2.7-2.64-1.21-7.23 2.52-7.77l23.93-3.48c1.48-.22 2.77-1.15 3.43-2.49l10.7-21.68c1.68-3.39 6.51-3.39 8.18 0z" fill="#ffab00"/><path d="m123.06 47.29 10.7 21.68c.66 1.34 1.95 2.28 3.43 2.49l23.93 3.48c3.74.54 5.23 5.13 2.52 7.77l-17.31 16.89c-1.07 1.05-1.56 2.55-1.31 4.03l4.09 23.83c.64 3.72-3.27 6.56-6.61 4.8l-21.4-11.25c-1.33-.7-2.91-.7-4.24 0l-21.4 11.25c-3.34 1.76-7.25-1.08-6.61-4.8l4.09-23.83c.25-1.48-.24-2.99-1.31-4.03l-17.33-16.88c-2.7-2.64-1.21-7.23 2.52-7.77l23.93-3.48c1.48-.22 2.77-1.15 3.43-2.49l10.7-21.68c1.68-3.39 6.51-3.39 8.18-.01z" fill="#ffee3b"/></svg>