<svg enable-background="new 0 0 232 280" viewBox="0 0 232 280" xmlns="http://www.w3.org/2000/svg"><path d="m68.6 148.21-67.67 95.47 39.64-2.25 11.01 38.15 67.67-95.47z" fill="#008eff"/><path d="m48.3 176.85-8.23 11.61c13.59 15.99 32.54 27.27 54.09 31.06l7.26-10.24c-21.33-4.35-39.95-16.1-53.12-32.43z" fill="#0071d4"/><path d="m164.34 148.21 67.67 95.47-39.65-2.25-11.01 38.15-67.66-95.47z" fill="#008eff"/><path d="m184.63 176.85 8.23 11.61c-13.59 15.99-32.54 27.27-54.09 31.06l-7.26-10.24c21.33-4.35 39.96-16.1 53.12-32.43z" fill="#0071d4"/><circle cx="116.47" cy="124.08" fill="#ffa0e3" r="91.99"/><circle cx="116.47" cy="124.08" fill="#ff4fc5" r="78.19"/><path d="m50.01 132.78c0-43.18 35.01-78.19 78.19-78.19 14.78 0 28.6 4.11 40.39 11.23-13.83-12.39-32.1-19.93-52.13-19.93-43.18 0-78.19 35.01-78.19 78.19 0 28.4 15.15 53.26 37.8 66.96-15.99-14.32-26.06-35.11-26.06-58.26z" fill="#ff00af"/><path d="m157.84 153.82c-.01-2.68-.02-5.38-.04-8.13-.04-6.15-.06-12.13-.06-17.94 0-4.78-.04-9.53-.13-14.22-.09-4.7-.13-9.44-.13-14.23 0-.51-.02-1.03-.06-1.54s-.11-1.07-.19-1.67c-.09-.77-.3-1.71-.64-2.82-.34-.77-.86-1.49-1.54-2.18-.94-.85-1.92-1.32-2.95-1.41-.51-.08-1.03-.15-1.54-.19s-1.11-.06-1.79-.06c-1.37 0-2.71.49-4.04 1.47s-2.58 2.16-3.78 3.52c-1.2 1.37-2.26 2.78-3.2 4.23s-1.71 2.69-2.31 3.72c-1.45 2.31-2.71 4.36-3.78 6.15s-2.09 3.44-3.08 4.93c-.98 1.5-1.9 2.91-2.75 4.23-.86 1.33-1.71 2.67-2.56 4.04-.17.34-.41.77-.71 1.28s-.64 1.05-1.03 1.6c-.38.56-.75 1.07-1.09 1.54s-.64.83-.9 1.09c-1.54-2.13-3.18-4.7-4.93-7.69s-3.74-6.28-5.96-9.87c-.51-.85-1.11-1.84-1.79-2.95-.69-1.11-1.41-2.26-2.18-3.46s-1.54-2.35-2.31-3.46-1.5-2.05-2.18-2.82c-1.11-1.2-2.29-2.63-3.52-4.29-1.24-1.67-2.71-2.67-4.42-3.01-.51-.08-1.05-.15-1.6-.19-.56-.04-1.13-.06-1.73-.06-1.45 0-2.82.38-4.1 1.15-1.11.68-2.01 1.71-2.69 3.08-.34.77-.62 1.56-.83 2.37s-.32 1.69-.32 2.63c-.51 7.18-.77 14.48-.77 21.92v17.17l-.1 16.07c.04.99.14 1.96.34 2.9.26 1.2.66 2.33 1.22 3.4.55 1.07 1.43 1.99 2.63 2.75.94.43 1.96.73 3.08.9 1.11.17 2.26.04 3.46-.38 1.28-.09 2.39-.56 3.33-1.41.68-.51 1.24-1.28 1.67-2.31.43-.94.72-1.97.9-3.08.15-.96.26-1.88.34-2.77h.06c.02-2.26.04-4.6.07-7.04.04-4.66.06-9.01.06-13.07s.02-7.45.06-10.19c.04-2.73.06-4.14.06-4.23 2.73 5.13 5.38 9.48 7.95 13.07 2.56 3.59 4.87 6.66 6.92 9.23.34.51.79 1.05 1.35 1.6.55.56 1.15 1.09 1.79 1.6s1.3.94 1.99 1.28c.68.34 1.37.47 2.05.38 1.2-.08 2.35-.45 3.46-1.09s2.41-1.88 3.91-3.72c1.49-1.84 3.33-4.44 5.51-7.82 2.18-3.37 4.93-7.84 8.27-13.39.17 2.82.23 4.55.19 5.19s-.06 1.09-.06 1.35c0 1.54.02 2.71.06 3.52s.06 1.54.06 2.18 0 1.35 0 2.11 0 1.84 0 3.2l.1 15.82c.04.99.14 1.96.34 2.9.26 1.2.66 2.33 1.22 3.4.55 1.07 1.43 1.99 2.63 2.75.94.43 1.96.73 3.08.9 1.11.17 2.26.04 3.46-.38 1.28-.09 2.39-.56 3.33-1.41.68-.51 1.24-1.28 1.67-2.31.43-.94.72-1.97.9-3.08.15-.96.26-1.88.34-2.77h-.07z" fill="#ff00af"/><path d="m157.84 149.91c-.01-2.68-.02-5.38-.04-8.13-.04-6.15-.06-12.13-.06-17.94 0-4.78-.04-9.53-.13-14.22-.09-4.7-.13-9.44-.13-14.23 0-.51-.02-1.03-.06-1.54s-.11-1.07-.19-1.67c-.09-.77-.3-1.71-.64-2.82-.34-.77-.86-1.49-1.54-2.18-.94-.85-1.92-1.32-2.95-1.41-.51-.08-1.03-.15-1.54-.19s-1.11-.06-1.79-.06c-1.37 0-2.71.49-4.04 1.47s-2.58 2.16-3.78 3.52c-1.2 1.37-2.26 2.78-3.2 4.23s-1.71 2.69-2.31 3.72c-1.45 2.31-2.71 4.36-3.78 6.15s-2.09 3.44-3.08 4.93c-.98 1.5-1.9 2.91-2.75 4.23-.86 1.33-1.71 2.67-2.56 4.04-.17.34-.41.77-.71 1.28s-.64 1.05-1.03 1.6c-.38.56-.75 1.07-1.09 1.54s-.64.83-.9 1.09c-1.54-2.13-3.18-4.7-4.93-7.69s-3.74-6.28-5.96-9.87c-.51-.85-1.11-1.84-1.79-2.95-.69-1.11-1.41-2.26-2.18-3.46s-1.54-2.35-2.31-3.46-1.5-2.05-2.18-2.82c-1.11-1.2-2.29-2.63-3.52-4.29-1.24-1.67-2.71-2.67-4.42-3.01-.51-.08-1.05-.15-1.6-.19-.56-.04-1.13-.06-1.73-.06-1.45 0-2.82.38-4.1 1.15-1.11.68-2.01 1.71-2.69 3.08-.34.77-.62 1.56-.83 2.37s-.32 1.69-.32 2.63c-.51 7.18-.77 14.48-.77 21.92v17.17l-.1 16.07c.04.99.14 1.96.34 2.9.26 1.2.66 2.33 1.22 3.4.55 1.07 1.43 1.99 2.63 2.75.94.43 1.96.73 3.08.9 1.11.17 2.26.04 3.46-.38 1.28-.09 2.39-.56 3.33-1.41.68-.51 1.24-1.28 1.67-2.31.43-.94.72-1.97.9-3.08.15-.96.26-1.88.34-2.77h.06c.02-2.26.04-4.6.07-7.04.04-4.66.06-9.01.06-13.07s.02-7.45.06-10.19c.04-2.73.06-4.14.06-4.23 2.73 5.13 5.38 9.48 7.95 13.07 2.56 3.59 4.87 6.66 6.92 9.23.34.51.79 1.05 1.35 1.6.55.56 1.15 1.09 1.79 1.6s1.3.94 1.99 1.28c.68.34 1.37.47 2.05.38 1.2-.08 2.35-.45 3.46-1.09s2.41-1.88 3.91-3.72c1.49-1.84 3.33-4.44 5.51-7.82 2.18-3.37 4.93-7.84 8.27-13.39.17 2.82.23 4.55.19 5.19s-.06 1.09-.06 1.35c0 1.54.02 2.71.06 3.52s.06 1.54.06 2.18 0 1.35 0 2.11 0 1.84 0 3.2l.1 15.82c.04.99.14 1.96.34 2.9.26 1.2.66 2.33 1.22 3.4.55 1.07 1.43 1.99 2.63 2.75.94.43 1.96.73 3.08.9 1.11.17 2.26.04 3.46-.38 1.28-.09 2.39-.56 3.33-1.41.68-.51 1.24-1.28 1.67-2.31.43-.94.72-1.97.9-3.08.15-.96.26-1.88.34-2.77h-.07z" fill="#ffa0e3"/><path d="m53.26 14.15c-9.54 4.91-13.3 16.63-8.38 26.17l34.56-17.79c-4.92-9.54-16.64-13.3-26.18-8.38z" fill="#ff001c"/><path d="m31.16 29.69 20.8 23.35 24.46-12.6z" fill="#ffc70e"/><path d="m78.76 5.19 6.91 30.49-24.46 12.6z" fill="#ffc70e"/><path d="m46.59 27.06 12.99 22.05 18.17-9.35z" fill="#ffe700"/><path d="m77.75 39.76-10.11-23.54-8.06 32.89" fill="#ffe700"/><path d="m49.62 7.2 10.17 41.81 17.96-9.25z" fill="#ffc70e"/><path d="m87.94 39.9-33.87 17.43c-1.17.6-2.62.14-3.22-1.03-.6-1.17-.14-2.62 1.03-3.22l33.87-17.43c1.17-.6 2.62-.14 3.22 1.03.6 1.17.14 2.61-1.03 3.22z" fill="#ffe300"/><circle cx="48.37" cy="4.65" fill="#ffc70e" r="2.07"/><circle cx="44.21" cy="25.3" fill="#ffe700" r="2.07"/><circle cx="67.6" cy="13.26" fill="#ffe700" r="2.07"/><g fill="#ffc70e"><circle cx="28.65" cy="28.32" r="2.07"/><circle cx="79.1" cy="2.35" r="2.07"/></g></svg>