<svg enable-background="new 0 0 233 252" viewBox="0 0 233 252" xmlns="http://www.w3.org/2000/svg"><path d="m68.61 118.73-67.67 95.47 39.65-2.25 11.01 38.15 67.67-95.47z" fill="#ff9e00"/><path d="m48.32 147.37-8.23 11.61c13.59 15.99 32.54 27.27 54.09 31.06l7.26-10.24c-21.33-4.36-39.96-16.1-53.12-32.43z" fill="#eb7b00"/><path d="m164.35 118.73 67.67 95.47-39.64-2.25-11.01 38.15-67.67-95.47z" fill="#ff9e00"/><path d="m184.65 147.37 8.23 11.61c-13.59 15.99-32.54 27.27-54.09 31.06l-7.26-10.24c21.33-4.36 39.95-16.1 53.12-32.43z" fill="#eb7b00"/><circle cx="116.48" cy="94.6" fill="#fff3b9" r="91.99"/><circle cx="116.48" cy="94.6" fill="#fff500" r="78.19"/><path d="m50.03 103.29c0-43.18 35.01-78.19 78.19-78.19 14.78 0 28.6 4.11 40.39 11.23-13.83-12.39-32.1-19.93-52.13-19.93-43.18 0-78.19 35.01-78.19 78.19 0 28.4 15.15 53.26 37.8 66.96-15.99-14.31-26.06-35.1-26.06-58.26z" fill="#e7d600"/><path d="m146.03 84.06c-4.52-16.04-17.11-27.35-30.22-28.91-13.92-1.65-24.32 8.76-30.89 19.6l-3.62.22-6.38.38 2.95 5.67 1.97 3.79c-.52 1.25-.98 2.45-1.37 3.57-1.2 3.43-9.3 27.68 4.69 45.05 15.45 19.18 48.88 18.84 69.08 3.38 20.35-15.57 20.83-41.55 20.84-45.24-9.03-2.51-18.04-5.01-27.05-7.51z" fill="#e7d600"/><path d="m145.68 79.45c-4.52-16.04-17.11-27.35-30.22-28.91-13.92-1.65-24.32 8.76-30.89 19.6l-3.62.22-6.38.38 2.95 5.67 1.97 3.79c-.52 1.25-.98 2.45-1.37 3.57-1.2 3.43-9.3 27.68 4.69 45.05 15.45 19.18 48.88 18.84 69.08 3.38 20.35-15.57 20.83-41.55 20.84-45.24-9.03-2.5-18.04-5.01-27.05-7.51z" fill="#fff3b9"/></svg>