<svg enable-background="new 0 0 90 78" viewBox="0 0 90 78" xmlns="http://www.w3.org/2000/svg"><path d="m17.8 25.7-4.8 13.4-2.6-.9c-7.4-2.7-11.3-10.9-8.6-18.2z" fill="#a8a8a8"/><path d="m17.8 42.5-2.3 10.7-2.1-.5c-5.9-1.3-9.6-7.1-8.3-13z" fill="#a8a8a8"/><path d="m72.9 25.7 4.8 13.4 2.6-.9c7.4-2.7 11.2-10.8 8.5-18.2z" fill="#939393"/><path d="m72.9 42.5 2.3 10.7 2.1-.5c5.9-1.3 9.6-7.1 8.3-13z" fill="#939393"/><path d="m79.1 58.6v-39l-33.8-19.5-33.7 19.5v39l33.7 19.4z" fill="#a8a8a8"/><path d="m45.3 78 33.8-19.4v-39l-8.4-4.8-50.4 48.8z" fill="#939393"/><path d="m45.3 8.1-26.8 15.5v31l26.8 15.4 26.8-15.5v-31z" fill="#eaeaea"/><path d="m25.5 58.6 19.8 11.4 26.9-15.4v-31l-6.7-3.8z" fill="#d6d6d6"/><text font-family="'BusanFont_Provisional'" font-size="40.6322" transform="translate(34.0449 53.2981)">1</text></svg>