<svg enable-background="new 0 0 75 75" viewBox="0 0 75 75" xmlns="http://www.w3.org/2000/svg"><g transform="translate(-39.056 -27.056)"><path d="m39.36 26.85h75v75h-75z" fill="none"/><path d="m110.42 44c-1.5-.15-3-.24-4.49-.32v-2.58l-1.11-.12c-7.39-.82-14.86-.45-22.14 1.1-1.97.42-3.95.94-5.89 1.54-1.95-.6-3.93-1.12-5.89-1.54-7.27-1.55-14.75-1.92-22.14-1.1l-1.11.12v2.58c-1.5.08-2.99.17-4.49.32l-1.34.13v41.98l1.66-.16c8.55-.85 17.17-.46 25.61 1.14 2.07.4 4.16.88 6.2 1.42v.01c.51.13 1.02.26 1.53.39l.42-.12c2.38-.67 4.82-1.24 7.25-1.71 8.44-1.6 17.06-1.99 25.61-1.14l1.66.16v-41.97zm-35.14 41.71c-1.84-.47-3.71-.89-5.57-1.25-5.71-1.09-11.51-1.63-17.33-1.63-2.52 0-5.04.1-7.57.3v-36.58c.94-.08 1.89-.14 2.83-.19v33.89l1.39-.15c7.12-.79 14.33-.43 21.34 1.06 1.64.35 3.29.78 4.92 1.26zm.25-39.2v33.36c-.08-.02-.17-.04-.25-.07-1.46-.41-2.93-.78-4.39-1.1-4.75-1.02-9.59-1.53-14.44-1.53-2.1 0-4.2.09-6.31.28v-34.1c6.76-.64 13.58-.24 20.23 1.18 1.72.37 3.46.81 5.17 1.33v.65zm2.5 0v-.66c1.71-.51 3.44-.96 5.17-1.33 6.64-1.42 13.46-1.81 20.22-1.18v34.12c-6.94-.63-13.94-.21-20.75 1.24-1.47.31-2.94.68-4.39 1.1-.08.02-.17.04-.25.07zm30.72 36.62c-8.32-.68-16.7-.23-24.9 1.33-1.86.36-3.73.78-5.57 1.25v-3.28c1.63-.48 3.27-.92 4.92-1.27 7.01-1.5 14.22-1.85 21.34-1.06l1.39.15v-33.89c.94.05 1.88.11 2.83.19z" fill="#fff"/></g></svg>