<svg enable-background="new 0 0 75 75" viewBox="0 0 75 75" xmlns="http://www.w3.org/2000/svg"><path d="m.304-.206h75v75h-75z" fill="none"/><g fill="#fff" transform="translate(-2391.914 -616.542)"><g transform="translate(2400.914 625.542)"><path d="m49.01-.2-48.7 48.7 7.56 7.56 48.7-48.7zm3.85 7.56-3.92 3.92-3.86-3.86 3.92-3.92zm-18.66 10.94 3.86 3.86-14.49 14.49-3.86-3.86zm5.71 2.01-3.86-3.86 7.18-7.18 3.86 3.86zm-35.9 28.18 13.85-13.85 3.86 3.86-13.85 13.86z"/><circle cx="32.11" cy="24.25" r="1.27"/><circle cx="26.43" cy="29.93" r="1.27"/><circle cx="15.33" cy="41.03" r="1.27"/><circle cx="9.64" cy="46.72" r="1.27"/></g><path d="m2419.03 633.16v-3.18h-9.26v8.92c-.68-.22-1.41-.26-2.11-.11-1.77.38-2.97 1.75-2.69 3.06s1.94 2.07 3.71 1.7c1.43-.16 2.56-1.3 2.72-2.73v-7.65h6v5.74c-.68-.22-1.41-.26-2.11-.11-1.77.38-2.97 1.75-2.69 3.06s1.94 2.07 3.71 1.7c1.43-.16 2.56-1.3 2.72-2.73v-7.65z"/><path d="m2447.8 659.27h-1.62v8.92c-.68-.22-1.41-.26-2.11-.11-1.77.38-2.97 1.75-2.69 3.06s1.94 2.07 3.71 1.7c1.43-.16 2.56-1.3 2.72-2.74v-7.65h2.86v-3.18z"/></g></svg>