<svg enable-background="new 0 0 107 509" viewBox="0 0 107 509" xmlns="http://www.w3.org/2000/svg" xmlns:xlink="http://www.w3.org/1999/xlink"><linearGradient id="a" gradientTransform="matrix(28.363 0 0 -436 12608.6826 513667.4063)" gradientUnits="userSpaceOnUse" x1="-444.0202" x2="-443.0202" y1="1177.5776" y2="1177.5776"><stop offset="0" stop-color="#dfa46a"/><stop offset="0" stop-color="#d69c62"/><stop offset="0" stop-color="#cc955a"/><stop offset=".223" stop-color="#c58e54"/><stop offset=".539" stop-color="#b27d46"/><stop offset=".908" stop-color="#945f2e"/><stop offset="1" stop-color="#8c5728"/></linearGradient><linearGradient id="b"><stop offset="0" stop-color="#673421"/><stop offset=".635" stop-color="#683522"/><stop offset=".863" stop-color="#6f3927"/><stop offset="1" stop-color="#7a402f"/><stop offset="1" stop-color="#421a0e"/></linearGradient><linearGradient id="c" gradientTransform="matrix(28.358 0 0 -11.254 12606.4434 13808.2568)" gradientUnits="userSpaceOnUse" x1="-444.0191" x2="-443.0191" xlink:href="#b" y1="1218.25" y2="1218.25"/><linearGradient id="d" gradientTransform="matrix(28.358 0 0 -11.254 12606.4434 13900.8516)" gradientUnits="userSpaceOnUse" x1="-444.0191" x2="-443.0191" xlink:href="#b" y1="1218.25" y2="1218.25"/><linearGradient id="e" gradientTransform="matrix(28.358 0 0 -11.254 12606.4434 14028.1357)" gradientUnits="userSpaceOnUse" x1="-444.0191" x2="-443.0191" xlink:href="#b" y1="1218.25" y2="1218.25"/><g transform="translate(-69.66 -215.116)"><g transform="translate(90.127 215.116)"><path d="m33.03 25.55c0 2.15-1.74 3.9-3.89 3.91-2.15 0-3.9-1.74-3.91-3.89v-.01h-10.28v436h28.36v-436h-10.28z" fill="url(#a)"/><path d="m14.95 83.85h28.36v4.43h-28.36z" fill="#fad696"/><path d="m14.95 92.44h28.36v11.25h-28.36z" fill="url(#c)"/><path d="m14.95 185.04h28.36v11.25h-28.36z" fill="url(#d)"/><path d="m14.95 312.32h28.36v11.25h-28.36z" fill="url(#e)"/><path d="m14.95 177.78h28.36v4.43h-28.36z" fill="#fad696"/><path d="m14.95 304.31h28.36v4.43h-28.36z" fill="#fad696"/><circle cx="29.13" cy="235.86" fill="#9d9d9d" r="5.1"/><circle cx="29.13" cy="276.97" fill="#9d9d9d" r="5.1"/><circle cx="29.13" cy="353.73" fill="#2b2b2b" r="5.1"/><path d="m29.13 389.74c2.82 0 5.1 2.28 5.1 5.1s-2.28 5.1-5.1 5.1-5.1-2.28-5.1-5.1 2.29-5.1 5.1-5.1z" fill="#fff"/></g><ellipse cx="97.69" cy="418.88" fill="#2b2b2b" rx="13.08" ry="13.08"/><text fill="#fff" font-family="'NotoSansKR-Regular-KSCpc-EUC-H'" font-size="15" transform="translate(89.8026 422.8034)">뒤</text></g></svg>