<svg enable-background="new 0 0 25 20" viewBox="0 0 25 20" xmlns="http://www.w3.org/2000/svg"><g fill="#fff"><path d="m7 7.3c-.6 0-1.2.4-1.2 1.1v2.1c0 .7.7 1.1 1.2 1.1s1.2-.4 1.2-1.1v-2.1c0-.8-.6-1.1-1.2-1.1z"/><path d="m12.1 9.7c-.2 0-.3.1-.3.3 0 .1.1.2.1.3l.1.1.1-.1c.2-.2.3-.3.3-.4s-.1-.2-.3-.2z"/><path d="m11.6 11.9c0 .2.2.3.4.3.1 0 .2-.1.4-.1l-.5-.7c-.2.2-.3.3-.3.5z"/><path d="m17.1 10.4h1.4l-.7-2.3z"/><path d="m24.6 9.5c0-4.8-5.4-8.6-12-8.6s-12 3.9-12 8.6 5.4 8.6 12 8.6c1.3 0 2.6-.2 3.7-.4 1.8.8 3.6 1.5 5.4 2.3-.4-1.3-.8-2.7-1.2-4 2.5-1.6 4.1-3.9 4.1-6.5zm-14.8 4.5c-.4.2-1 .2-1.3-.2l-.6-.8c-.3.1-.6.1-.9.1-1.3 0-3-.7-3-2.7v-2c0-2.1 1.7-2.7 3-2.7s3 .7 3 2.7v2c0 .7-.2 1.3-.6 1.7l.6.7c.4.4.2 1-.2 1.2zm3.8-1.1h-.2c-.3 0-.4 0-.6-.2-.3.2-.6.3-.9.3-.6 0-1.2-.4-1.2-1 0-.5.3-.8.7-1.1l-.1-.2c-.2-.3-.3-.5-.3-.8 0-.6.5-.9 1.1-.9s1.1.3 1.1.8c0 .4-.2.7-.7 1.1l-.1.1.4.6c0-.1.1-.2.1-.3.1-.2.3-.3.5-.3.2.1.3.3.2.5s-.2.5-.4.7c.1.1.1.1.2.1h.1c.3 0 .4.2.4.3.1.2-.1.3-.3.3zm5.7.1-.3-1.1h-2.3l-.4 1.1h-1.9l2.3-6.5c.2-.5.7-.7 1.2-.7s.9.3 1.1.7l2.3 6.5z"/></g></svg>