<svg enable-background="new 0 0 24 20" viewBox="0 0 24 20" xmlns="http://www.w3.org/2000/svg"><g fill="#fff"><path d="m24 8.8c0-4.8-5.4-8.6-12-8.6s-12 3.9-12 8.6 5.4 8.6 12 8.6c1.3 0 2.6-.2 3.7-.4 1.8.8 3.6 1.5 5.4 2.3-.4-1.3-.8-2.7-1.2-4 2.6-1.6 4.1-3.9 4.1-6.5zm-14.6-1.6h-1.3v5.7h-1.9v-5.7h-1.4c-.5 0-.7-.4-.7-.8s.2-.8.7-.8h4.6c.5 0 .7.4.7.8.1.4-.1.8-.7.8zm3.5 5.7h-1.9v-6.4c0-.6.4-.9.9-.9s.9.3.9.9v6.4zm7.1-4.7c0 1.7-1.1 2.5-2.7 2.5h-1.1v2.1h-1.9v-5.8c0-1 .3-1.4 1.4-1.4h1.6c1.6 0 2.7.8 2.7 2.5z"/><path d="m17.2 7.2h-.8c-.2 0-.3 0-.3.3v1.7h1c.6 0 .9-.5.9-1v-.1c.2-.5-.2-.9-.8-.9z"/></g></svg>