<svg enable-background="new 0 0 28 31" viewBox="0 0 28 31" xmlns="http://www.w3.org/2000/svg"><path d="m13.9.8-13 7.5v15l13 7.5 13-7.5v-15z" fill="#faf1e6"/><path d="m4.3 25.3 9.6 5.6 13-7.5v-15l-3.2-1.9z" fill="#e1c8ac"/><path d="m13.9 3.9-10.3 6v11.9l10.3 6 10.3-6v-11.9z" fill="#fffbf6"/><path d="m15.8 12.6c-.1-.4-.2-.8-.5-1.1s-.6-.4-1-.4-.8.1-1.1.4c-.3.2-.5.6-.7.9-.2.4-.3.8-.4 1.3s-.1.9-.1 1.4c.3-.5.6-.9 1.1-1.1.4-.2 1-.4 1.6-.4.4 0 .9.1 1.3.3s.8.4 1.1.8.5.7.7 1.2.3 1 .3 1.6-.1 1.2-.3 1.7-.4 1-.8 1.3-.7.7-1.2.9-1 .3-1.6.3c-.8 0-1.5-.2-2-.5s-1-.8-1.3-1.3-.5-1.2-.7-1.9c-.2-.9-.2-1.6-.2-2.4 0-.7.1-1.5.2-2.2.2-.7.4-1.4.8-2 .3-.6.8-1.1 1.3-1.4.5-.4 1.2-.5 1.9-.5.5 0 .9.1 1.3.2s.7.3 1.1.6c.3.3.6.6.8 1s.3.8.4 1.3zm-1.7 2.6c-.3 0-.6.1-.8.2s-.4.3-.6.5-.3.4-.4.7-.1.6-.1.9 0 .6.1.9.2.5.4.7.4.4.6.5.5.2.8.2.5-.1.8-.2c.2-.1.4-.3.6-.5s.3-.4.3-.7c.1-.3.1-.6.1-.8 0-.3 0-.6-.1-.9s-.2-.5-.3-.7c-.2-.2-.3-.4-.6-.5-.3-.2-.6-.3-.8-.3z"/></svg>