<svg enable-background="new 0 0 28 31" viewBox="0 0 28 31" xmlns="http://www.w3.org/2000/svg"><path d="m13.9.8-13 7.5v15l13 7.5 13-7.5v-15z" fill="#faf1e6"/><path d="m4.3 25.3 9.6 5.6 13-7.5v-15l-3.2-1.9z" fill="#e1c8ac"/><path d="m13.9 3.9-10.3 6v11.9l10.3 6 10.3-6v-11.9z" fill="#fffbf6"/><path d="m10.2 14.1c0-.6 0-1.2.2-1.8s.4-1.1.7-1.5.7-.8 1.2-1 1.1-.4 1.7-.4c.5 0 1 .1 1.4.3s.8.4 1.2.7c.3.3.6.7.8 1.1s.3 1 .3 1.5 0 .9-.1 1.3-.2.7-.4 1-.4.6-.7.8-.6.5-.9.7-.6.4-1 .6-.7.5-1 .7-.6.5-.8.7-.3.5-.3.7h5.3v1.8h-7.8c0-.7.1-1.2.3-1.8s.5-1 .8-1.4.7-.8 1.2-1.2c.4-.3.9-.7 1.4-.9.3-.2.5-.3.8-.5s.5-.4.7-.6.4-.5.5-.7.2-.6.2-.9c0-.6-.2-1-.5-1.4s-.7-.6-1.3-.6c-.3 0-.6.1-.9.3-.2.2-.4.4-.6.7-.1.3-.3.6-.3.9-.1.3-.1.6-.1.9z"/></svg>