<svg enable-background="new 0 0 28 31" viewBox="0 0 28 31" xmlns="http://www.w3.org/2000/svg"><path d="m13.9.8-13 7.5v15l13 7.5 13-7.5v-15z" fill="#faf1e6"/><path d="m4.3 25.3 9.6 5.6 13-7.5v-15l-3.2-1.9z" fill="#e1c8ac"/><path d="m13.9 3.9-10.3 6v11.9l10.3 6 10.3-6v-11.9z" fill="#fffbf6"/><path d="m17.3 11.5h-4.5l-.5 2.9c.3-.4.7-.6 1-.8s.8-.2 1.3-.2.9.1 1.3.3.8.5 1 .8c.3.3.5.8.7 1.2.2.5.3 1 .3 1.6s-.1 1.2-.3 1.7-.5 1-.8 1.3c-.4.4-.8.6-1.3.8s-1 .3-1.6.3c-.5 0-1.1-.1-1.5-.2s-.9-.4-1.3-.7-.7-.7-.9-1.1-.3-.9-.3-1.4h2c.1.5.3.9.6 1.3s.8.5 1.3.5c.3 0 .6-.1.8-.2s.5-.3.6-.5c.2-.2.3-.5.4-.7.1-.3.1-.6.1-.9s-.1-.6-.2-.9-.2-.5-.4-.7-.4-.4-.6-.5-.5-.2-.8-.2c-.4 0-.8.1-1.1.2-.3.2-.5.4-.7.7h-1.8l1.1-6.4h6v1.8z"/></svg>