<svg enable-background="new 0 0 28 31" viewBox="0 0 28 31" xmlns="http://www.w3.org/2000/svg"><path d="m13.9.8-13 7.5v15l13 7.5 13-7.5v-15z" fill="#faf1e6"/><path d="m4.3 25.3 9.6 5.6 13-7.5v-15l-3.2-1.9z" fill="#e1c8ac"/><path d="m13.9 3.9-10.3 6v11.9l10.3 6 10.3-6v-11.9z" fill="#fffbf6"/><path d="m13.2 14.4c.3 0 .6 0 .8-.1s.5-.1.8-.2.4-.3.5-.5.2-.5.2-.8c0-.5-.2-.9-.5-1.2s-.7-.4-1.2-.4c-.6 0-1 .2-1.3.6s-.5.9-.5 1.5h-1.9c0-.6.1-1.1.3-1.6s.4-.9.7-1.3.7-.6 1.2-.8 1-.3 1.5-.3 1 .1 1.4.2.8.4 1.2.6c.3.3.6.6.8 1s.3.8.3 1.3c0 .6-.1 1.1-.4 1.5s-.6.7-1.1.9c.3.1.5.2.7.4s.4.4.6.6.3.5.4.8.2.6.2.9c0 .6-.1 1.2-.3 1.7s-.5.9-.9 1.2-.8.6-1.3.7-1 .2-1.5.2c-.6 0-1.2-.1-1.7-.3s-.9-.5-1.3-.9-.6-.8-.8-1.3-.2-.8-.2-1.4h1.9c0 .7.2 1.3.6 1.7.3.4.8.7 1.5.7.3 0 .5 0 .8-.1.2-.1.4-.2.6-.4s.3-.4.4-.6.1-.5.1-.8c0-.4-.1-.8-.2-1s-.3-.4-.6-.5c-.2-.1-.5-.2-.8-.2s-.6 0-.9 0v-1.8z"/></svg>