<svg enable-background="new 0 0 92 80" viewBox="0 0 92 80" xmlns="http://www.w3.org/2000/svg" xmlns:xlink="http://www.w3.org/1999/xlink"><clipPath id="a"><path d="m1.8 1.4h88.8v77.9h-88.8z"/></clipPath><g clip-path="url(#a)"><path d="m18.6 27-4.8 13.4-2.6-.9c-7.4-2.7-11.2-10.8-8.6-18.2z" fill="#0098ff"/><path d="m18.6 43.8-2.3 10.7-2.1-.5c-5.9-1.3-9.6-7.1-8.3-13z" fill="#0098ff"/><path d="m73.7 27 4.8 13.4 2.6-.9c7.4-2.7 11.2-10.8 8.5-18.2z" fill="#0078e5"/><path d="m73.8 43.8 2.3 10.7 2.1-.5c5.9-1.3 9.6-7.1 8.3-13z" fill="#0078e5"/><path d="m79.9 59.9v-39l-33.7-19.5-33.8 19.5v38.9l33.7 19.5z" fill="#0098ff"/><path d="m46.2 79.3 33.7-19.5v-38.9l-8.4-4.8-50.3 48.8z" fill="#0078e5"/><path d="m46.2 9.4-26.8 15.5v31l26.8 15.5 26.8-15.5v-31z" fill="#c2e9ff"/><path d="m26.3 59.9 19.8 11.5 26.9-15.5v-31l-6.6-3.8z" fill="#a6e1ff"/></g><path d="m50.6 54.6h-5.3v-21.3c-.9.6-1.9 1-3.2 1.1s-2.6.1-4 .1v-4c2.4-.1 4.2-.7 5.5-1.9s2.1-2.6 2.4-4.2h4.6z"/></svg>