<svg enable-background="new 0 0 93 82" viewBox="0 0 93 82" xmlns="http://www.w3.org/2000/svg" xmlns:xlink="http://www.w3.org/1999/xlink"><clipPath id="a"><path d="m2.3 1.8h88.8v77.9h-88.8z"/></clipPath><g clip-path="url(#a)"><path d="m19.1 27.4-4.8 13.4-2.6-.9c-7.4-2.8-11.2-10.9-8.5-18.3z" fill="#0098ff"/><path d="m19.1 44.1-2.3 10.7-2.1-.5c-5.9-1.3-9.7-7.1-8.4-13z" fill="#0098ff"/><path d="m74.3 27.4 4.8 13.4 2.6-.9c7.4-2.7 11.2-10.8 8.5-18.2z" fill="#006ac9"/><path d="m74.3 44.1 2.3 10.7 2.1-.5c5.9-1.3 9.6-7.1 8.3-13z" fill="#006ac9"/><path d="m80.4 60.2v-38.9l-33.7-19.5-33.7 19.5v38.9l33.7 19.5z" fill="#0098ff"/><path d="m46.7 79.7 33.7-19.5v-38.9l-8.4-4.9-50.3 48.8z" fill="#006ac9"/><path d="m46.7 9.8-26.8 15.5v31l26.8 15.5 26.8-15.5v-31z" fill="#c2e9ff"/><path d="m26.9 60.2 19.8 11.5 26.8-15.5v-31l-6.6-3.8z" fill="#8fd2ef"/></g><text font-family="'BusanFont_Provisional'" font-size="40.632" transform="translate(35.4064 54.9576)">1</text></svg>