<svg enable-background="new 0 0 92 80" viewBox="0 0 92 80" xmlns="http://www.w3.org/2000/svg" xmlns:xlink="http://www.w3.org/1999/xlink"><clipPath id="a"><path d="m1.7 1.3h88.8v77.9h-88.8z"/></clipPath><g clip-path="url(#a)"><path d="m18.5 26.9-4.8 13.4-2.6-.9c-7.4-2.7-11.2-10.9-8.6-18.3z" fill="#efbe50"/><path d="m18.5 43.6-2.3 10.7-2.1-.5c-5.9-1.3-9.6-7.1-8.3-13z" fill="#efbe50"/><path d="m73.7 26.9 4.8 13.4 2.6-.9c7.4-2.7 11.2-10.8 8.5-18.2z" fill="#ef9f00"/><path d="m73.7 43.6 2.3 10.7 2.1-.5c5.9-1.3 9.6-7.1 8.3-13z" fill="#ef9f00"/><path d="m79.8 59.7v-38.9l-33.7-19.5-33.7 19.5v38.9l33.7 19.5z" fill="#efbe50"/><path d="m46.1 79.2 33.7-19.5v-38.9l-8.4-4.8-50.3 48.8z" fill="#ef9f00"/><path d="m46.1 9.3-26.8 15.5v31l26.8 15.5 26.8-15.5v-31z" fill="#f9e6c0"/><path d="m26.2 59.8 19.8 11.5 26.8-15.5v-31l-6.5-3.8z" fill="#f4d192"/></g><path d="m44.3 36.6c.7 0 1.5 0 2.2-.1s1.4-.3 2-.6 1.1-.7 1.4-1.2c.4-.5.5-1.2.5-2 0-1.3-.4-2.3-1.2-3.1s-1.8-1.2-3.2-1.2c-1.5 0-2.7.5-3.5 1.5s-1.2 2.3-1.2 4h-5c0-1.5.2-2.8.7-4.1s1.1-2.3 1.9-3.3c.8-.9 1.8-1.6 3-2.1s2.5-.8 4-.8c1.3 0 2.5.2 3.6.6s2.1.9 3 1.6 1.5 1.6 2 2.6.7 2.2.7 3.5c0 1.6-.3 2.9-1 4s-1.6 1.8-2.9 2.3c.7.2 1.3.5 1.9 1 .6.4 1.1.9 1.6 1.5s.8 1.3 1.1 2c.3.8.4 1.6.4 2.4 0 1.6-.3 3.1-.9 4.3s-1.3 2.3-2.3 3.1-2.1 1.4-3.3 1.8c-1.3.4-2.6.6-3.9.6-1.6 0-3.1-.3-4.4-.8s-2.4-1.3-3.3-2.2c-.9-1-1.6-2.1-2.1-3.4s-.7-2.8-.6-4.4h5c.1 1.8.6 3.3 1.4 4.4.9 1.1 2.2 1.7 3.9 1.7.7 0 1.4-.1 2-.4s1.1-.6 1.5-1 .8-1 1-1.6.4-1.3.4-2c0-1.1-.2-2-.6-2.6s-.9-1.1-1.5-1.4-1.3-.5-2.1-.6-1.6-.1-2.5-.1v-3.9z"/></svg>