<svg enable-background="new 0 0 92 80" viewBox="0 0 92 80" xmlns="http://www.w3.org/2000/svg" xmlns:xlink="http://www.w3.org/1999/xlink"><clipPath id="a"><path d="m1.7 1.3h88.8v77.9h-88.8z"/></clipPath><g clip-path="url(#a)"><path d="m18.5 26.9-4.8 13.4-2.6-.9c-7.4-2.7-11.2-10.9-8.6-18.3z" fill="#ff4d4d"/><path d="m18.5 43.6-2.3 10.7-2.1-.5c-5.9-1.3-9.6-7.1-8.3-13z" fill="#ff4d4d"/><path d="m73.7 26.9 4.8 13.4 2.6-.9c7.4-2.7 11.2-10.8 8.5-18.2z" fill="#ff1010"/><path d="m73.7 43.6 2.3 10.7 2.1-.5c5.9-1.3 9.6-7.1 8.3-13z" fill="#ff1010"/><path d="m79.8 59.7v-38.9l-33.7-19.5-33.7 19.5v38.9l33.7 19.5z" fill="#ff4d4d"/><path d="m46.1 79.2 33.7-19.5v-38.9l-8.4-4.8-50.3 48.8z" fill="#ff1010"/><path d="m46.1 9.3-26.8 15.5v31l26.8 15.5 26.8-15.5v-31z" fill="#ffe3e3"/><path d="m26.2 59.8 19.8 11.5 26.8-15.5v-31l-6.5-3.8z" fill="#ffc0c0"/></g><path d="m49 47.4h-13.7v-4.8l14-18.8h4.7v18.9h3v4.8h-3v7.1h-5zm0-15.2-7.9 10.4h7.9z"/></svg>