<svg enable-background="new 0 0 92 80" viewBox="0 0 92 80" xmlns="http://www.w3.org/2000/svg" xmlns:xlink="http://www.w3.org/1999/xlink"><clipPath id="a"><path d="m1.7 1.3h88.8v77.9h-88.8z"/></clipPath><g clip-path="url(#a)"><path d="m18.5 26.9-4.8 13.4-2.6-.9c-7.4-2.7-11.2-10.9-8.6-18.3z" fill="#93db16"/><path d="m18.5 43.6-2.3 10.7-2.1-.5c-5.9-1.3-9.6-7.1-8.3-13z" fill="#93db16"/><path d="m73.7 26.9 4.8 13.4 2.6-.9c7.4-2.7 11.2-10.8 8.5-18.2z" fill="#62bf00"/><path d="m73.7 43.6 2.3 10.7 2.1-.5c5.9-1.3 9.6-7.1 8.3-13z" fill="#62bf00"/><path d="m79.8 59.7v-38.9l-33.7-19.5-33.7 19.5v38.9l33.7 19.5z" fill="#93db16"/><path d="m46.1 79.2 33.7-19.5v-38.9l-8.4-4.8-50.3 48.8z" fill="#62bf00"/><path d="m46.1 9.3-26.8 15.5v31l26.8 15.5 26.8-15.5v-31z" fill="#e5f7b7"/><path d="m26.2 59.8 19.8 11.5 26.8-15.5v-31l-6.5-3.8z" fill="#d1ed7c"/></g><path d="m36.5 35.8c-.1-1.6.1-3.2.5-4.6.4-1.5 1-2.7 1.9-3.8s1.9-2 3.2-2.6 2.8-1 4.5-1c1.3 0 2.5.2 3.7.7 1.2.4 2.2 1.1 3.1 1.9s1.6 1.8 2.1 3 .8 2.5.8 3.9c0 1.2-.1 2.4-.4 3.3-.3 1-.6 1.9-1.1 2.6-.5.8-1.1 1.5-1.8 2.1s-1.5 1.2-2.4 1.8c-.7.5-1.6 1-2.5 1.6s-1.8 1.2-2.6 1.8-1.5 1.2-2 1.8c-.6.6-.8 1.2-.8 1.7h13.6v4.6h-20.5c0-1.7.3-3.2.8-4.6s1.2-2.6 2.1-3.7 1.9-2.1 3-3c1.2-.9 2.3-1.7 3.6-2.4.7-.4 1.3-.8 2-1.3s1.3-1 1.8-1.6 1-1.2 1.3-1.9.5-1.5.5-2.4c0-1.5-.4-2.7-1.2-3.7s-1.9-1.4-3.3-1.4c-.9 0-1.7.2-2.3.7s-1.1 1.1-1.5 1.8-.7 1.5-.8 2.4c-.2.9-.3 1.7-.3 2.4h-5z"/></svg>