<svg enable-background="new 0 0 59 447" viewBox="0 0 59 447" xmlns="http://www.w3.org/2000/svg" xmlns:xlink="http://www.w3.org/1999/xlink"><linearGradient id="a" gradientTransform="matrix(28.363 0 0 -436 511.8837 110102.5391)" gradientUnits="userSpaceOnUse" x1="-18.0315" x2="-17.0315" y1="252.0222" y2="252.0222"><stop offset="0" stop-color="#d7a773"/><stop offset="0" stop-color="#ce9f6b"/><stop offset="0" stop-color="#c59863"/><stop offset=".223" stop-color="#be915d"/><stop offset=".539" stop-color="#ab7f4f"/><stop offset=".908" stop-color="#8d6137"/><stop offset="1" stop-color="#855931"/></linearGradient><linearGradient id="b"><stop offset="0" stop-color="#603725"/><stop offset=".635" stop-color="#613826"/><stop offset=".863" stop-color="#683c2b"/><stop offset="1" stop-color="#724333"/><stop offset="1" stop-color="#3d1c11"/></linearGradient><linearGradient id="c" gradientTransform="matrix(28.358 0 0 -11.254 511.749 2708.7009)" gradientUnits="userSpaceOnUse" x1="-18.0299" x2="-17.0299" xlink:href="#b" y1="233.99" y2="233.99"/><linearGradient id="d" gradientTransform="matrix(28.358 0 0 -11.254 511.749 2801.2959)" gradientUnits="userSpaceOnUse" x1="-18.0299" x2="-17.0299" xlink:href="#b" y1="233.99" y2="233.99"/><linearGradient id="e" gradientTransform="matrix(28.358 0 0 -11.254 511.749 2928.5798)" gradientUnits="userSpaceOnUse" x1="-18.0299" x2="-17.0299" xlink:href="#b" y1="233.99" y2="233.99"/><g transform="translate(-69.66 -215.116)"><g transform="translate(90.127 215.116)"><path d="m18.54 2.85c0 2.15-1.74 3.9-3.89 3.91-2.15 0-3.9-1.74-3.91-3.89v-.01h-10.28v436h28.36v-436h-10.28z" fill="url(#a)"/><path d="m.46 61.15h28.36v4.43h-28.36z" fill="#f5d89f"/><path d="m.46 69.75h28.36v11.25h-28.36z" fill="url(#c)"/><path d="m.46 162.35h28.36v11.25h-28.36z" fill="url(#d)"/><path d="m.46 289.63h28.36v11.25h-28.36z" fill="url(#e)"/><path d="m.46 155.09h28.36v4.43h-28.36z" fill="#f5d89f"/><path d="m.46 281.61h28.36v4.43h-28.36z" fill="#f5d89f"/><path d="m14.64 208.07c2.82 0 5.1 2.28 5.1 5.1s-2.28 5.1-5.1 5.1-5.1-2.28-5.1-5.1 2.28-5.1 5.1-5.1z" fill="#fff"/><path d="m14.64 249.18c2.82 0 5.1 2.28 5.1 5.1s-2.28 5.1-5.1 5.1-5.1-2.28-5.1-5.1 2.28-5.1 5.1-5.1z" fill="#54452a"/><g fill="#fff"><path d="m14.64 325.94c2.82 0 5.1 2.28 5.1 5.1s-2.28 5.1-5.1 5.1-5.1-2.28-5.1-5.1c0-2.81 2.28-5.1 5.1-5.1z"/><path d="m14.64 367.05c2.82 0 5.1 2.28 5.1 5.1s-2.28 5.1-5.1 5.1-5.1-2.28-5.1-5.1 2.28-5.1 5.1-5.1z"/></g></g><ellipse cx="83.2" cy="396.19" fill="#54452a" rx="13.08" ry="13.08"/><text fill="#fff" font-family="'NotoSansKR-Regular-KSCpc-EUC-H'" font-size="15" transform="translate(75.3113 400.1091)">뒤</text></g></svg>