<svg enable-background="new 0 0 56 447" viewBox="0 0 56 447" xmlns="http://www.w3.org/2000/svg" xmlns:xlink="http://www.w3.org/1999/xlink"><linearGradient id="a" gradientTransform="matrix(28.363 0 0 -436 2648.5593 338430.4062)" gradientUnits="userSpaceOnUse" x1="-93.3097" x2="-92.3097" y1="775.6974" y2="775.6974"><stop offset="0" stop-color="#d7a773"/><stop offset="0" stop-color="#ce9f6b"/><stop offset="0" stop-color="#c59863"/><stop offset=".223" stop-color="#be915d"/><stop offset=".539" stop-color="#ab7f4f"/><stop offset=".908" stop-color="#8d6137"/><stop offset="1" stop-color="#855931"/></linearGradient><linearGradient id="b"><stop offset="0" stop-color="#603725"/><stop offset=".635" stop-color="#613826"/><stop offset=".863" stop-color="#683c2b"/><stop offset="1" stop-color="#724333"/><stop offset="1" stop-color="#3d1c11"/></linearGradient><linearGradient id="c" gradientTransform="matrix(28.358 0 0 -11.254 2648.1311 8894.4023)" gradientUnits="userSpaceOnUse" x1="-93.3109" x2="-92.3109" xlink:href="#b" y1="783.1502" y2="783.1502"/><linearGradient id="d" gradientTransform="matrix(28.358 0 0 -11.254 2648.1311 8986.998)" gradientUnits="userSpaceOnUse" x1="-93.3109" x2="-92.3109" xlink:href="#b" y1="783.1502" y2="783.1502"/><linearGradient id="e" gradientTransform="matrix(28.358 0 0 -11.254 2648.1311 9114.2822)" gradientUnits="userSpaceOnUse" x1="-93.3109" x2="-92.3109" xlink:href="#b" y1="783.1502" y2="783.1502"/><g transform="translate(20.467)"><path d="m20.1 8.3c0 2.2-1.7 3.9-3.9 3.9s-3.9-1.7-3.9-3.9h-10.3v436h28.4v-436z" fill="url(#a)"/><path d="m2 66.6h28.4v4.4h-28.4z" fill="#f5d89f"/><path d="m2 75.2h28.4v11.3h-28.4z" fill="url(#c)"/><path d="m2 167.8h28.4v11.3h-28.4z" fill="url(#d)"/><path d="m2 295.1h28.4v11.3h-28.4z" fill="url(#e)"/><path d="m2 160.5h28.4v4.4h-28.4z" fill="#f5d89f"/><path d="m2 287.1h28.4v4.4h-28.4z" fill="#f5d89f"/><g fill="#fff"><circle cx="16.2" cy="218.6" r="5.1"/><circle cx="16.2" cy="259.7" r="5.1"/><circle cx="16.2" cy="336.5" r="5.1"/><path d="m16.2 372.5c2.8 0 5.1 2.3 5.1 5.1s-2.3 5.1-5.1 5.1-5.1-2.3-5.1-5.1 2.3-5.1 5.1-5.1z"/></g></g><ellipse cx="15.14" cy="186.484" fill="#ffa200" rx="13.1" ry="13.1"/><path d="m87.6 403.1c-1.3.2-2.6.3-3.9.4v4.8h-1.2v-4.7c-1.3 0-2.6.1-3.7.1l-.2-1c2.7 0 6 0 9-.4zm-1.1-2.3h-6.7v-4.8h6.5v1h-5.3v2.9h5.4v.9zm3.2-5.6v13.5h-1.2v-13.5z" fill="#fff" transform="translate(-69.66 -215.116)"/></svg>