<svg enable-background="new 0 0 59 447" viewBox="0 0 59 447" xmlns="http://www.w3.org/2000/svg" xmlns:xlink="http://www.w3.org/1999/xlink"><linearGradient id="a" gradientTransform="matrix(28.363 0 0 -436 811.6946 331875.4062)" gradientUnits="userSpaceOnUse" x1="-28.5325" x2="-27.5325" y1="760.6669" y2="760.6669"><stop offset="0" stop-color="#d7a773"/><stop offset="0" stop-color="#ce9f6b"/><stop offset="0" stop-color="#c59863"/><stop offset=".223" stop-color="#be915d"/><stop offset=".539" stop-color="#ab7f4f"/><stop offset=".908" stop-color="#8d6137"/><stop offset="1" stop-color="#855931"/></linearGradient><linearGradient id="b"><stop offset="0" stop-color="#603725"/><stop offset=".635" stop-color="#613826"/><stop offset=".863" stop-color="#683c2b"/><stop offset="1" stop-color="#724333"/><stop offset="1" stop-color="#3d1c11"/></linearGradient><linearGradient id="c" gradientTransform="matrix(28.358 0 0 -11.254 811.6003 8710.5928)" gradientUnits="userSpaceOnUse" x1="-28.5341" x2="-27.5341" xlink:href="#b" y1="766.9642" y2="766.9642"/><linearGradient id="d" gradientTransform="matrix(28.358 0 0 -11.254 811.6003 8803.1875)" gradientUnits="userSpaceOnUse" x1="-28.5341" x2="-27.5341" xlink:href="#b" y1="766.9642" y2="766.9642"/><linearGradient id="e" gradientTransform="matrix(28.358 0 0 -11.254 811.6003 8930.4717)" gradientUnits="userSpaceOnUse" x1="-28.5341" x2="-27.5341" xlink:href="#b" y1="766.9642" y2="766.9642"/><g transform="translate(-69.785 -215.116)"><g transform="translate(90.127 215.116)"><path d="m20.5 6.7c0 2.2-1.7 3.9-3.9 3.9s-3.9-1.7-3.9-3.9h-10.3v436h28.4v-436z" fill="url(#a)"/><path d="m2.4 65h28.4v4.4h-28.4z" fill="#f5d89f"/><path d="m2.4 73.6h28.4v11.3h-28.4z" fill="url(#c)"/><path d="m2.4 166.1h28.4v11.3h-28.4z" fill="url(#d)"/><path d="m2.4 293.4h28.4v11.3h-28.4z" fill="url(#e)"/><path d="m2.4 158.9h28.4v4.4h-28.4z" fill="#f5d89f"/><path d="m2.4 285.4h28.4v4.4h-28.4z" fill="#f5d89f"/><g fill="#fff"><circle cx="16.6" cy="217" r="5.1"/><circle cx="16.6" cy="258.1" r="5.1"/><circle cx="16.6" cy="334.8" r="5.1"/><path d="m16.6 370.9c2.8 0 5.1 2.3 5.1 5.1s-2.3 5.1-5.1 5.1-5.1-2.3-5.1-5.1 2.3-5.1 5.1-5.1z"/></g></g><ellipse cx="85.3" cy="399.8" fill="#fff" rx="13.1" ry="13.1"/><text fill="#54452a" font-family="'NotoSansKR-Regular-KSCpc-EUC-H'" font-size="15" transform="translate(78.2161 405.7682)">뒤</text></g></svg>