<svg enable-background="new 0 0 46 46" viewBox="0 0 46 46" xmlns="http://www.w3.org/2000/svg"><path d="m13.5 6.8v-.8h-6.4v.8 4.6c-.5-.3-1.3-.4-2-.2-1.1.4-1.7 1.5-1.4 2.4s1.5 1.4 2.6 1c.9-.3 1.5-1.1 1.5-1.9v-5.2h4.9v3.9c-.5-.3-1.3-.4-2-.2-1.1.4-1.7 1.5-1.4 2.4s1.5 1.4 2.6 1c.9-.3 1.5-1.1 1.5-1.9z" fill="#4c4c4c"/><ellipse cx="4.8" cy="12.7" fill="#9e9e9e" rx=".6" ry=".5" transform="matrix(.5634 -.8262 .8262 .5634 -8.4075 9.4978)"/><ellipse cx="10.3" cy="12.8" fill="#9e9e9e" rx=".6" ry=".5" transform="matrix(.5634 -.8262 .8262 .5634 -6.049 14.0615)"/><path d="m44 23.1-2.2.5-.3 1.7-.5 2.8c-.4-.4-1.1-.6-1.9-.5-1.1.2-1.9 1.1-1.8 2.1.2 1 1.2 1.6 2.3 1.4.9-.2 1.6-.8 1.7-1.6l.8-4.4 1.4-.3z" fill="#4c4c4c"/><ellipse cx="38.5" cy="28.8" fill="#9e9e9e" rx=".5" ry=".6" transform="matrix(.6042 -.7968 .7968 .6042 -7.7183 42.0344)"/><path d="m24.1 42.9 1.8-1.4-.4-1.7-.7-2.9c.6.2 1.4.1 2-.3 1-.7 1.3-1.9.8-2.7-.6-.8-1.8-1-2.8-.3-.8.5-1.2 1.5-1 2.2l1.1 4.5-1.2.9z" fill="#4c4c4c"/><ellipse cx="24.9" cy="34.7" fill="#9e9e9e" rx=".6" ry=".5" transform="matrix(.7572 -.6532 .6532 .7572 -16.6301 24.6608)"/><path d="m44.7 3.2c-.4.4-1.1.4-1.5 0s-.4-1.1 0-1.5l-1.2-1.1-41.2 41.1 3.8 3.8 41.2-41.1z" fill="#efbe50"/><path d="m36.6 6.5h5.4v1.2h-5.4z" fill="#db943e" transform="matrix(.7071 .7071 -.7071 .7071 16.5244 -25.7463)"/><path d="m28.7 14.4h5.4v1.2h-5.4z" fill="#db943e" transform="matrix(.7071 .7071 -.7071 .7071 19.8023 -17.8326)"/><path d="m14.7 28.5h5.4v1.2h-5.4z" fill="#db943e" transform="matrix(.7071 .7071 -.7071 .7071 25.6265 -3.7718)"/><g fill="#b77023"><circle cx="27.3" cy="19.1" r="1.2"/><circle cx="22.1" cy="24.3" r="1.2"/><circle cx="12.6" cy="33.8" r="1.2"/><circle cx="7.4" cy="39" r="1.2"/></g></svg>