<svg enable-background="new 0 0 46.3 46.3" viewBox="0 0 46.3 46.3" xmlns="http://www.w3.org/2000/svg"><circle cx="23.3" cy="23.2" fill="#fff" r="22.1"/><path d="m23.3 45.7c-12.4 0-22.5-10.1-22.5-22.5s10.1-22.5 22.5-22.5 22.5 10.1 22.5 22.5-10.1 22.5-22.5 22.5zm0-42.9c-11.2 0-20.4 9.1-20.4 20.4s9.1 20.4 20.4 20.4 20.4-9.1 20.4-20.4-9.2-20.4-20.4-20.4z" fill="#efbe50"/><g fill="#ffa300"><circle cx="23.3" cy="12.6" r="3.4"/><path d="m26.1 31.8v-11.7c0-1.5-1.2-2.8-2.8-2.8h-1.7c-1.5 0-2.8 1.2-2.8 2.8 0 1.1.7 2.1 1.7 2.5v11.7c0 1.5 1.2 2.8 2.8 2.8h1.7c1.5 0 2.8-1.2 2.8-2.8-.1-1.1-.8-2-1.7-2.5z"/></g></svg>