<svg enable-background="new 0 0 17 12" viewBox="0 0 17 12" xmlns="http://www.w3.org/2000/svg"><g fill="#fff" transform="translate(-2062.736 -761.571)"><path d="m2067.08 765.38h-3.46c-.17 0-.31.14-.31.31v4.49c0 .17.14.31.31.31h3.46l4.14 2.73c.14.09.33.05.43-.09.03-.05.05-.11.05-.17v-2.48-5.1-2.48c0-.17-.14-.31-.31-.31-.06 0-.12.02-.17.05z"/><path d="m2077.69 767.93 1.47-1.47c.22-.22.22-.57 0-.78s-.57-.22-.78 0l-1.47 1.47-1.47-1.47c-.22-.22-.57-.22-.78 0s-.22.57 0 .78l1.47 1.47-1.47 1.47c-.22.22-.22.57 0 .78s.57.22.78 0l1.47-1.47 1.47 1.47c.22.22.57.22.78 0s.22-.57 0-.78z"/></g></svg>