<svg enable-background="new 0 0 17 12" viewBox="0 0 17 12" xmlns="http://www.w3.org/2000/svg"><g fill="#fff" transform="translate(-2062.736 -761.404)"><path d="m2066.89 764.79h-3.46c-.17 0-.31.14-.31.31v4.49c0 .17.14.31.31.31h3.46l4.14 2.73c.14.09.33.05.43-.09.03-.05.05-.11.05-.17v-2.48-5.1-2.48c0-.17-.14-.31-.31-.31-.06 0-.12.02-.17.05z"/><path d="m2074.72 771.13c-.34 0-.62-.28-.62-.62 0-.16.07-.32.18-.44 1.46-1.46 1.46-3.84 0-5.3-.24-.24-.24-.63 0-.87s.63-.24.87 0c1.95 1.95 1.95 5.1 0 7.05-.11.12-.27.18-.43.18z"/><path d="m2076.41 773.21c-.34 0-.62-.28-.62-.62 0-.16.06-.32.18-.44 2.55-2.56 2.55-6.7 0-9.26-.24-.24-.24-.63 0-.87s.63-.24.87 0c3.04 3.04 3.04 7.97 0 11.01-.1.11-.26.18-.43.18z"/></g></svg>