<svg enable-background="new 0 0 60.9 60.9" viewBox="0 0 60.9 60.9" xmlns="http://www.w3.org/2000/svg"><path d="m20.1 28.4h30.1c.7 0 1.3.6 1.3 1.3v20.3c0 .3-.2.5-.5.5h-3.7v3.9c0 .2-.2.3-.4.2l-8.3-4.2h-18.5c-.7 0-1.3-.6-1.3-1.3v-19.3c0-.8.6-1.4 1.3-1.4z" fill="#fff"/><path d="m47.3 55.5c-.1 0-.3 0-.4-.1l-8.2-4.1h-18.4c-1.1 0-2.1-.9-2.1-2.1v-19.3c0-1.1.9-2.1 2.1-2.1h30.1c1.1 0 2.1.9 2.1 2.1v20.2c0 .7-.5 1.2-1.2 1.2h-3v3.2c0 .3-.2.7-.5.8-.2.2-.3.2-.5.2zm-27-26.2c-.3 0-.6.3-.6.6v19.4c0 .3.3.6.6.6h18.7l7.8 3.9v-3.9h4.2v-20c0-.3-.3-.6-.6-.6z" fill="#efbe50"/><path d="m40.1 10.9h-30.1c-.7 0-1.3.6-1.3 1.3v20.2c0 .3.2.5.5.5h3.7v3.9c0 .2.2.3.4.2l8.3-4.2h18.5c.7 0 1.3-.6 1.3-1.3v-19.2c0-.8-.6-1.4-1.3-1.4z" fill="#fff"/><path d="m12.8 38.4c-.2 0-.4 0-.5-.1-.3-.2-.5-.5-.5-.8v-3.2h-3c-.7 0-1.2-.5-1.2-1.2v-20.4c0-1.1.9-2.1 2.1-2.1h30.1c1.1 0 2.1.9 2.1 2.1v19.4c0 1.1-.9 2.1-2.1 2.1h-18.4l-8.2 4.1c-.1 0-.3.1-.4.1zm-3.8-5.7h4.2v3.9l7.8-3.9h18.7c.3 0 .6-.3.6-.6v-19.4c0-.3-.3-.6-.6-.6h-30c-.3 0-.6.3-.6.6v20z" fill="#efbe50"/><g fill="#ffa300"><path d="m19.6 20.2c0-3.3 2.7-4.4 4.9-4.4 2.1 0 4.9 1.1 4.9 4.4v3.2c0 1.2-.4 2.1-.9 2.8l1 1.1c.6.7.3 1.6-.3 2s-1.7.3-2.2-.3l-1-1.3c-.5.1-1 .2-1.5.2-2.1 0-4.9-1.1-4.9-4.4zm6.8 0c0-1.3-1-1.9-1.9-1.9s-1.9.6-1.9 1.9v3.4c0 1.2 1.1 1.9 1.9 1.9s1.9-.7 1.9-1.9z"/><path d="m33.3 36.8c.3-.8 1.1-1.2 1.9-1.2.7 0 1.5.4 1.8 1.2l3.8 10.6h-3.2l-.6-1.8h-3.7l-.6 1.8h-3.1zm.7 6.3h2.2l-1.1-3.6z"/></g></svg>