<svg enable-background="new 0 0 60.9 60.9" viewBox="0 0 60.9 60.9" xmlns="http://www.w3.org/2000/svg" xmlns:xlink="http://www.w3.org/1999/xlink"><linearGradient id="a" gradientUnits="userSpaceOnUse" x1="29.9453" x2="50.6705" y1="35.289" y2="35.289"><stop offset="0" stop-color="#ddd"/><stop offset="1" stop-color="#fff"/></linearGradient><path d="m35 22.1c6.6-1.5 12.6-1.4 17.5-.9v13.5 3 13.8c-4.9-.6-10.9-.6-17.5.9-1.7.4-3.4.8-5 1.3v-16.4c0-.9 0-1.7 0-2.6 0-3.8 0-7.5 0-11.3 1.6-.5 3.2-1 5-1.3z" fill="#efbe50"/><path d="m25.1 22.1c-6.6-1.5-12.6-1.4-17.5-.9v13.5 3 13.8c4.9-.6 10.9-.6 17.5.9 1.7.4 3.4.8 5 1.3v-16.4c0-.9 0-1.7 0-2.6 0-3.8 0-7.5 0-11.3-1.6-.5-3.3-1-5-1.3z" fill="#efbe50"/><path d="m25.4 20c-6.1-1.5-11.6-1.5-16.2-.9v13.6 3 13.9c4.5-.6 10.1-.6 16.2.9 1.6.4 3.1.8 4.6 1.3v-16.5c0-.9 0-1.7 0-2.6 0-3.8 0-7.6 0-11.3-1.4-.5-2.9-1-4.6-1.4z" fill="#f7f7f7"/><path d="m34.6 20c6.1-1.5 11.6-1.5 16.2-.9v13.6 3 13.9c-4.6-.6-10.1-.6-16.2.8-1.6.4-3.1.8-4.6 1.3v-16.4c0-.9 0-1.7 0-2.6 0-3.8 0-7.6 0-11.3 1.5-.5 3-1 4.6-1.4z" fill="url(#a)"/><path d="m43.2 8.7-1.9.8v1.5 2.6c-.5-.3-1.1-.4-1.8-.1-1 .4-1.5 1.3-1.2 2.2.3.8 1.4 1.2 2.3.8.8-.3 1.3-1 1.3-1.7v-4l1.2-.5v-1.6z" fill="#4c4c4c"/><ellipse cx="39.3" cy="14.7" fill="#9e9e9e" rx=".4" ry=".5" transform="matrix(.4436 -.8962 .8962 .4436 8.6308 43.3887)"/><path d="m16.6 16.6 1.5-1.2-.3-1.4-.5-2.3c.5.2 1.1.1 1.6-.2.8-.5 1.1-1.5.6-2.2s-1.5-.8-2.3-.3c-.7.4-1 1.2-.8 1.8l.9 3.6-1 .7z" fill="#4c4c4c"/><ellipse cx="17.2" cy="10" fill="#9e9e9e" rx=".5" ry=".4" transform="matrix(.7572 -.6532 .6532 .7572 -2.3504 13.6396)"/><path d="m33.8 12.8.2-.6-5.4-1.4-.2.6-1 3.9c-.4-.4-1-.6-1.6-.6-1 .1-1.8.9-1.7 1.8s1 1.5 2 1.4c.8-.1 1.5-.6 1.7-1.3l1.2-4.4 4.1 1.1-.9 3.3c-.4-.4-1-.6-1.6-.6-1 .1-1.8.9-1.7 1.8s1 1.5 2 1.4c.8-.1 1.5-.6 1.7-1.3z" fill="#4c4c4c"/><g fill="#9e9e9e"><ellipse cx="25.1" cy="15.7" rx=".6" ry=".5" transform="matrix(.7572 -.6532 .6532 .7572 -4.1813 20.2401)"/><ellipse cx="29.8" cy="17" rx=".6" ry=".5" transform="matrix(.7572 -.6532 .6532 .7572 -3.8926 23.5808)"/></g></svg>