<svg enable-background="new 0 0 60.9 60.9" viewBox="0 0 60.9 60.9" xmlns="http://www.w3.org/2000/svg" xmlns:xlink="http://www.w3.org/1999/xlink"><linearGradient id="a" gradientUnits="userSpaceOnUse" x1="44" x2="15.7157" y1="44.8462" y2="16.5619"><stop offset="0" stop-color="#ffe537"/><stop offset="1" stop-color="#efbe50"/></linearGradient><circle cx="30" cy="30.9" fill="url(#a)" r="20"/><g fill="#fff"><path d="m30 24.1c-3.7 0-6.8 3-6.8 6.8 0 3.7 3 6.8 6.8 6.8s6.8-3 6.8-6.8-3-6.8-6.8-6.8zm0 11.5c-2.6 0-4.7-2.1-4.7-4.7s2.1-4.7 4.7-4.7 4.7 2.1 4.7 4.7c.1 2.6-2.1 4.7-4.7 4.7z" opacity=".8"/><path d="m30 26.6c-2.4 0-4.3 1.9-4.3 4.3s1.9 4.3 4.3 4.3 4.3-1.9 4.3-4.3-1.9-4.3-4.3-4.3zm0 7.7c-1.9 0-3.4-1.5-3.4-3.4s1.5-3.4 3.4-3.4 3.4 1.5 3.4 3.4-1.5 3.4-3.4 3.4z" opacity=".8"/><path d="m23.6 27-9.9-6.5c3.7-5.5 9.2-8.6 15.8-8.9l.5 11.8c-2.6 0-5 1.5-6.4 3.6z" opacity=".4"/></g><path d="m50 35.7v-1.4h-12v1.4 8.7c-1-.6-2.4-.8-3.7-.3-2.1.8-3.3 2.8-2.6 4.6s2.9 2.6 5 1.8c1.7-.6 2.8-2.1 2.8-3.6v-9.8h9.2v7.3c-1-.6-2.4-.8-3.7-.3-2.1.8-3.3 2.8-2.6 4.6s2.9 2.6 5 1.8c1.7-.6 2.8-2.1 2.8-3.6z" fill="#4c4c4c"/><ellipse cx="33.6" cy="46.8" fill="#9e9e9e" rx="1.2" ry="1" transform="matrix(.5634 -.8262 .8262 .5634 -23.9881 48.1886)"/><ellipse cx="44" cy="46.9" fill="#9e9e9e" rx="1.2" ry="1" transform="matrix(.5634 -.8262 .8262 .5634 -19.5298 56.8155)"/></svg>