<svg enable-background="new 0 0 360 258" viewBox="0 0 360 258" xmlns="http://www.w3.org/2000/svg" xmlns:xlink="http://www.w3.org/1999/xlink"><linearGradient id="a" gradientUnits="userSpaceOnUse" x1="180" x2="180" y1="-24.8753" y2="233.2022"><stop offset="0" stop-color="#d7feff"/><stop offset=".2134" stop-color="#cbf9ff"/><stop offset=".6008" stop-color="#abecff"/><stop offset="1" stop-color="#83dcff"/></linearGradient><path d="m34 195.3c7.1 1.1 14.3 2.1 21.6 3-7.2-1.1-14.4-2-21.6-3z" fill="#cbed6e"/><path d="m178.2 151.5c12.5-3.8 25.5-7.3 38.9-10.6 52.8-12.8 101.2-18.3 142.9-20v-120.9h-360v152c48.6-5.2 109.2-7.5 178.2-.5z" fill="url(#a)"/><path d="m0 0v74.4c4.7 2.6 10.7 4.3 17.3 4.3 11.6 0 21.5-5 25.2-11.9 4.4 2 9.7 3.2 15.5 3.2 12.9 0 23.7-6.2 26.2-14.4 4 3.1 9.4 5 15.4 5 12.2 0 22.2-8 22.2-17.9 0-3.3-1.1-6.3-3-9 5.3 2 11.4 3.2 17.9 3.2 20.5 0 37-11.4 37-25.5 0-4.1-1.4-8-3.9-11.5h-169.8z" fill="#78a302"/><circle cx="255.6" cy="58.5" fill="#fff597" opacity=".55" r="38.6"/><ellipse cx="255.6" cy="58.51" fill="#fff42e" rx="29.7" ry="29.7" transform="matrix(.3417 -.9398 .9398 .3417 113.2623 278.7218)"/><path d="m356.6 29.3c-1.8-1.1-3.9-1.8-6.1-1.8-.6 0-1.1 0-1.7.1-1.9-4.6-7.7-8-14.5-8-8.4 0-15.2 5.1-15.2 11.4 0 1.6.4 3.2 1.3 4.5-2.5-1-5.3-1.6-8.4-1.6-9.2 0-16.6 5.1-16.6 11.4 0 2.3 1 4.4 2.6 6.2-.6.1-1.2.2-1.8.4-7.7 1.7-13.1 5.4-13.1 9.7 0 5.7 9.4 10.3 21.3 10.7 0 4.4 5.4 8 12 8 1.6 0 3.1-.2 4.4-.6 1.6 3.2 6.1 5.5 11.4 5.5 5.2 0 9.6-2.2 11.3-5.3 2 .9 4.4 1.5 6.9 1.5 3.9 0 7.4-1.3 9.6-3.2v-50.4c-1.2.3-2.4.8-3.4 1.5z" fill="#7da804"/><path d="m27 17h36c-2.3 22.4-4.8 46.8-5 73-.3 32 2.3 61.4 5 88-12.3 0-24.7 0-37 0-.4-33.8-.4-68.1 0-103 .2-19.5.6-38.8 1-58z" fill="#56411b"/><path d="m338.2 55h14.8c-.9 9.2-2 19.2-2.1 29.9-.1 13.1 1 25.2 2.1 36.1-5.1 0-10.1 0-15.2 0-.1-13.9-.2-27.9 0-42.2.1-8 .3-15.9.4-23.8z" fill="#56411b"/><path d="m0 0v58.2c1.3.1 2.7.2 4.1.2 11.6 0 21.5-5 25.2-11.9 4.4 2.1 9.7 3.3 15.5 3.3 12.9 0 23.7-6.2 26.2-14.4 4 3.1 9.4 5 15.4 5 12.2 0 22.2-8 22.2-17.9 0-3.3-1.1-6.3-3-9 5.3 2 11.4 3.2 17.9 3.2 16 0 29.6-7 34.8-16.8z" fill="#89c605"/><path d="m235 36.4c0-7.7-9.6-14.3-23.5-17.3-1.1-.2-2.1-.4-3.3-.6 3-3.2 4.7-7 4.7-11.1 0-2.6-.7-5-1.9-7.3h-159.7c-3.1.8-6.3 1.1-9.2.4-.2.1-.5.1-.7.2-.8.2-1.7.5-2.5.7.2 1.6.7 3 1.4 4.4-4.3 1.2-8.2 3-11.2 5.4-4.8 3.6-7.7 8.4-7.7 13.7 0 11.3 13.3 20.5 29.7 20.5 5.2 0 10.1-.9 14.3-2.5-1.5 2.1-2.4 4.6-2.4 7.2 0 7.9 8 14.4 17.8 14.4 4.8 0 9.2-1.5 12.4-4 2 6.6 10.7 11.5 21 11.5 4.6 0 8.9-1 12.4-2.7 3 5.6 10.9 9.6 20.2 9.6 9.5 0 17.5-4.1 20.4-9.9 2.5.7 5.1 1 8 1 11.9 0 21.5-6.4 21.5-14.4 0 0 0 0 0-.1 21.4-.7 38.3-9 38.3-19.1z" fill="#9ebf25"/><path d="m140.4 24.5c-10.1 0-20.1 0-30.2 0 1.9 18.8 4 39.3 4.2 61.3.2 26.8-2 51.6-4.2 73.8h31.1c.3-28.3.3-57.2 0-86.4-.2-16.5-.5-32.7-.9-48.7z" fill="#56411b"/><path d="m.4 152.3v72c2.6 1.1 5.3 2.2 7.9 3.3 41.8-25.3 98.9-54.3 170.2-75.8-68.9-7-129.5-4.7-178.1.5z" fill="#cbed6e"/><path d="m97.8 251.7c7.1 1.1 14.3 2.1 21.6 3-7.2-1.1-14.4-2.1-21.6-3z" fill="#cbed6e"/><path d="m114.8 73.4-.5-9.8-21.5-18.3-4.8 1.6z" fill="#56411b"/><path d="m134.7 92.1 1.7-10.5 26-22.3 5.2 1.3z" fill="#56411b"/><path d="m75.9 129.4c-1.6 0-3.2.2-4.6.6-1.6-6.5-7.5-11.4-14.5-11.4-2 0-4 .4-5.7 1.1-2.1-5.8-7.6-9.9-14.1-9.9-7.2 0-13.2 5.1-14.7 11.9-3.2-2.4-7.2-3.8-11.5-3.8-4 0-7.7 1.2-10.7 3.3v52.2c2.5 1.3 5.4 2 8.4 2 4.7 0 9-1.7 12.3-4.5 3.3 2.8 7.6 4.5 12.3 4.5 4.8 0 9.1-1.8 12.5-4.6 2.1.8 4.3 1.2 6.7 1.2 5.7 0 10.9-2.5 14.4-6.5 2.7 1.5 5.9 2.3 9.2 2.3 10.6 0 19.2-8.6 19.2-19.2s-8.6-19.2-19.2-19.2z" fill="#78a302"/><path d="m339 92.8-.9-5.9-14.5-12.4-2.9.7z" fill="#56411b"/><path d="m99.8 117.2c1.3.2 2.5.5 3.7 1 2-5.1 7.2-8.3 12.9-7.6 1.6.2 3.1.7 4.5 1.5 2.3-4.4 7.1-7.2 12.4-6.5 5.8.8 10.1 5.5 10.5 11.1 2.8-1.6 6.2-2.3 9.6-1.9 8 1 13.8 8 13.5 15.9 1.7-.6 3.6-.8 5.5-.6 6.6.9 11.3 7 10.4 13.6s-7 11.3-13.6 10.4c-1.5-.2-2.9-.7-4.2-1.4-2.9 5.7-9.1 9.3-15.9 8.4-3.8-.5-7-2.3-9.4-4.9-3 1.9-6.6 2.8-10.4 2.3s-7.1-2.4-9.5-5c-1.8.4-3.6.5-5.5.3-4.6-.6-8.5-3.2-10.9-6.8-2.3.9-5 1.3-7.6.9-8.5-1.1-14.5-8.9-13.4-17.4 1.1-8.4 8.9-14.4 17.4-13.3z" fill="#9ebf25"/><path d="m180 258.1c68.3 0 131-12.7 180-33.8v-33.6c-47.3-15.7-106.8-30.8-176.3-38.3-71.3-7.7-133.8-5.5-183.7-.1v72c49 21.1 111.7 33.8 180 33.8z" fill="#cbed6e"/><ellipse cx="97.4" cy="178.9" fill="#adcc3a" rx="54.9" ry="10.8"/><path d="m120.9 96.4c2.2-1.6 5.4-1.7 7.7-.2.6.4 1.2.9 1.5 1.6.4.8.5 1.7.4 2.6-.1 1.9-.9 3.9-2.5 4.9-1.9 1.2-4.4.7-6.5.2-.1 0-.2-.1-.3-.2s-.1-.4-.1-.5c.5-2.7.2-5.6-.2-8.4" fill="#c4c4c4"/><path d="m43.9 139.4c.1-.1.2-.2.4-.3.1-.1.1-.1 0 0 .1 0 .1-.1.2-.1.3-.2.5-.4.8-.5.5-.4 1.1-.7 1.6-1 .3-.1.6-.3.8-.4.1-.1.3-.1.4-.2.1 0 .5-.3.2-.1.6-.3 1.2-.5 1.8-.6.7-.2 1.3-1.1 1-1.8-.2-.8-1-1.3-1.8-1-2.7.8-5.3 2.2-7.5 4.1-.6.5-.6 1.6 0 2.1.6.4 1.5.4 2.1-.2z" fill="#617a05"/><circle cx="44.6" cy="154.1" fill="#fff" r="4.6"/><path d="m44.6 159.5c-3 0-5.4-2.4-5.4-5.4s2.4-5.4 5.4-5.4 5.4 2.4 5.4 5.4-2.4 5.4-5.4 5.4zm0-9.1c-2.1 0-3.7 1.7-3.7 3.7 0 2.1 1.7 3.7 3.7 3.7 2.1 0 3.7-1.7 3.7-3.7.1-2.1-1.6-3.7-3.7-3.7z" fill="#c4c4c4"/><path d="m145.3 153.8c-.9-6.6-8-11.3-12.6-17.6-1.2-1.7-2.5-3.1-3-4.6.6-2.7.9-5.4.9-8.2 0-21.5-17.4-38.9-38.9-38.9-11.3 0-21.4 4.8-28.5 12.4-1.2-.3-2.5-.3-3.6 0-3.4.8-6.4 3.6-7.2 7-.4 1.5-.3 3.4.9 4.5.5.4 1.1.7 1.7.9.2.1.3.1.5.2-.9 2.3-1.6 4.7-2 7.2-.4 2.2-.6 4.5-.6 6.8-.2 1.7-.5 3.2-.7 4.4-.8 4-1.5 6.5-2.3 11.5-.4 2.7-1.2 5.2-1.4 6.7-.9 4.7-2.8 8.4-1.8 14.5 2.4 14.8 19.9 21.7 26.1 24.1 17.3 6.9 46.9-1.6 61.7-7.6 7.4-3.2 12.4-11.7 10.8-23.3z" fill="#fff"/><path d="m146.3 153.5c-.5-3.4-2.6-6.4-4.8-8.9-2.4-2.8-5.2-5.4-7.5-8.4-.7-1-1.5-1.9-2.2-2.9-.3-.4-.6-.9-.8-1.3-.2-.5-.4-1.2-1-1.3.2.4.5.8.7 1.2 1.5-7.1 1.1-14.5-1.2-21.4-2-5.9-5.4-11.3-9.9-15.6-4.4-4.3-9.9-7.6-15.8-9.5-6.6-2.1-13.7-2.4-20.4-1-7.1 1.5-13.8 5-19.1 10-.6.6-1.2 1.2-1.8 1.8.3-.1.7-.2 1-.3-3.3-.8-6.7.3-9.1 2.6-2.1 2-3.7 5.2-3.1 8.2.2.9.6 1.7 1.2 2.3.7.7 1.7 1 2.6 1.4-.2-.4-.5-.8-.7-1.2-.9 2.3-1.6 4.7-2 7.2.3-.2.6-.5 1-.7-.6-.1-1 .5-1 1 0-.2 0 .1 0 .1 0 .1 0 .2-.1.4 0 .2-.1.5-.1.7-.1.5-.1 1.1-.2 1.6-.1 1-.2 2-.2 3 0 1.8-.4 3.5-.7 5.3-.6 3.1-1.4 6.1-1.9 9.1-.3 1.9-.6 3.8-1.1 5.7-.4 1.5-.6 3-.9 4.4-.7 3-1.7 6-1.8 9.2-.3 5.9 2 11.5 5.8 16 3.2 3.8 7.4 6.8 11.8 9.1 3.4 1.8 6.9 3.4 10.5 4.7 5.4 1.9 11.3 2.3 17 2.2 6.4-.2 12.7-1.1 18.9-2.5 5.9-1.3 11.7-2.9 17.4-4.8 2.4-.8 4.8-1.7 7.1-2.6 2.4-1 4.6-2.2 6.5-4 4.2-4.1 6.2-9.9 6.3-15.7-.1-1.7-.2-3.4-.4-5.1-.1-.5-.8-.8-1.2-.7-.6.2-.8.7-.7 1.2.8 5.7 0 11.8-3.5 16.6-1.4 1.9-3.2 3.6-5.3 4.7-2 1.1-4.3 1.8-6.4 2.6-5.4 1.9-10.8 3.6-16.3 4.9-6 1.5-12.1 2.6-18.3 3-5.7.4-11.5.4-17.1-.9-2-.5-4-1.2-5.9-2-.4-.2-.8-.3-1.1-.5-.2-.1.1.1-.1 0-.1 0-.2-.1-.3-.1-.2-.1-.4-.2-.6-.3-.9-.4-1.8-.8-2.7-1.2-4.2-2-8.2-4.5-11.6-7.7-3.7-3.5-6.5-7.8-7.4-12.8-.6-3.2-.2-6.4.6-9.5.4-1.5.8-2.9 1.1-4.4.1-.7.2-1.2.3-2 .2-.8.4-1.7.6-2.5.4-1.9.6-3.8 1-5.6.3-1.5.6-2.9.9-4.4s.6-2.9.9-4.4c.2-.9.3-1.8.4-2.7.1-1 .2-1.9.2-2.9s.1-1.9.2-2.8.3-1.8.4-2.7c-.3.3-.7.7-1 1 .4 0 .9-.3 1-.7.4-2.4 1.1-4.8 2-7.2.2-.5-.2-1.1-.7-1.2-.9-.3-1.8-.7-2.2-1.6-.4-.8-.3-1.8-.1-2.6.4-1.8 1.5-3.4 2.9-4.6 1.5-1.3 3.4-2 5.4-1.9.3 0 .6 0 .8.1.3.1.7.2 1.1.1.5-.1 1-.8 1.3-1.2.7-.7 1.5-1.5 2.3-2.1 6.3-5.4 14.4-8.6 22.8-9 7.3-.3 14.7 1.4 21 5.2 6 3.6 11 8.8 14.3 14.9 3.6 6.8 5 14.5 4.2 22.1-.1 1.2-.3 2.4-.6 3.6-.1.5.1 1.1.7 1.2-.2-.2-.5-.5-.7-.7.6 1.9 2.1 3.4 3.2 5 1.1 1.5 2.4 3 3.6 4.4 2.4 2.6 4.9 5 6.8 8 .9 1.5 1.6 3.1 1.9 4.8.1.5.8.8 1.2.7.5-.1.8-.6.7-1.2z" fill="#c4c4c4"/><ellipse cx="87.8" cy="164.6" fill="#ffb6b6" rx="3.2" ry="6"/><ellipse cx="138.1" cy="154.7" fill="#ffb6b6" rx="2.8" ry="5.2"/><path d="m104.4 119c-.6-.1-1.1-.2-1.7 0-.1.3-.3.5-.6.6-.2.1-.4 0-.6 0-.4.2-.7.5-1.2.5-.2.1-.5 0-.6-.1l14.1 49.7 4.7-1.3z" fill="#edbc50"/><path d="m100.9 124.5 4.7-1.3.3 1.1-4.7 1.3z" fill="#d9923e"/><path d="m103.6 134.2 4.7-1.3.3 1.1-4.7 1.3z" fill="#d9923e"/><path d="m108.4 151.4 4.7-1.3.3 1.1-4.7 1.3z" fill="#d9923e"/><circle cx="107.5" cy="139" fill="#b57023" r="1.1"/><circle cx="109.3" cy="145.4" fill="#b57023" r="1.1"/><circle cx="112.6" cy="157.1" fill="#b57023" r="1.1"/><circle cx="114.4" cy="163.5" fill="#b57023" r="1.1"/><ellipse cx="87.2" cy="114.39" fill="#262626" rx="2.7" ry="2" transform="matrix(.9346 -.3556 .3556 .9346 -34.9789 38.4852)"/><ellipse cx="111.23" cy="113.31" fill="#262626" rx="1.9" ry="2.5" transform="matrix(.4094 -.9123 .9123 .4094 -37.6844 168.4027)"/><path d="m97.6 119.9c1.7 1.4 3.8.4 5.3-.7-.2 0-.4-.1-.6-.1.5.6 1.3.7 2 .6s1.4-.2 1.9-.7c.4-.5-.3-1.2-.7-.7-.3.3-.8.4-1.2.4-.5 0-1 .1-1.3-.3-.1-.2-.4-.2-.6-.1-1.1.8-2.8 1.9-4.1.8-.5-.3-1.2.4-.7.8z" fill="#ffb6b6"/><path d="m96 137.5 5.6-3.3c2.3-1.4 5.3-.6 6.7 1.8 1.4 2.3.6 5.3-1.8 6.7l-5.6 3.3" fill="#fff"/><path d="m100.9 146.8c-.3 0-.6-.1-.7-.4-.2-.4-.1-.9.3-1.1l5.6-3.3c.9-.5 1.6-1.4 1.9-2.5s.1-2.1-.4-3.1c-1.1-1.9-3.6-2.6-5.6-1.5l-5.6 3.3c-.4.2-.9.1-1.1-.3s-.1-.9.3-1.1l5.6-3.3c1.3-.8 2.9-1 4.4-.6s2.7 1.3 3.5 2.7c.8 1.3 1 2.9.6 4.4s-1.3 2.7-2.7 3.5l-5.6 3.3c-.2 0-.3 0-.5 0z" fill="#c4c4c4"/><path d="m118.7 151-6 .8c-2.5.3-4.8-1.5-5.1-4s1.5-4.8 4-5.1l6-.8" fill="#fff"/><path d="m112.1 152.6c-1.2 0-2.4-.4-3.3-1.1-1.1-.9-1.9-2.2-2.1-3.6-.4-3 1.7-5.7 4.7-6.1l6-.8c.5-.1.9.3.9.7.1.5-.3.9-.7.9l-6 .8c-2 .3-3.5 2.1-3.2 4.2.1 1 .6 1.9 1.4 2.5s1.8.9 2.8.8l6-.8c.5-.1.9.3.9.7.1.5-.3.9-.7.9l-6 .8c-.2.1-.5.1-.7.1z" fill="#c4c4c4"/><path d="m172.6 133.1c.1-.3.2-.6.3-.9 0-.1 0-.1.1-.2 0 0 .1-.3 0-.1s0 0 0-.1.1-.1.1-.2c.3-.6.6-1.1 1-1.6 0-.1.1-.1.1-.2.2-.3-.2.2 0 0 .1-.1.2-.3.3-.4.2-.2.4-.5.6-.7s.5-.4.7-.6c0 0 .1-.1.2-.1-.3.3-.1.1 0 0s.3-.2.4-.3c.7-.4 1-1.3.5-2.1-.4-.6-1.4-1-2.1-.5-2.5 1.7-4.4 4.2-5.2 7.1-.2.8.3 1.7 1 1.8 1 .3 1.8-.1 2-.9z" fill="#617a05"/><path d="m175.4 135.3c.5-.6 1.1-1.1 1.6-1.6.1-.1.2-.1.3-.2-.1.1-.1.1 0 0 .2-.1.3-.2.5-.3.3-.2.7-.4 1-.6s.6-.4 1-.5c.1 0 .2-.1.3-.1 0 0 .3-.1.1-.1-.2.1.1 0 .1 0 .1 0 .2-.1.3-.1.7-.3 1.5-.5 2.2-.6.8-.2 1.3-1.1 1-1.8-.3-.8-1-1.2-1.8-1-3.3.7-6.5 2.5-8.8 5-.5.6-.6 1.6 0 2.1.7.3 1.6.4 2.2-.2z" fill="#617a05"/><path d="m11.4 121.3c-1.3-3.3-3.4-6.1-6.2-8.2-.6-.5-1.7-.1-2.1.5-.4.8-.1 1.5.5 2.1-.2-.1-.1-.1 0 0s.2.1.2.2c.1.1.3.2.4.3.3.2.5.5.8.7l.8.8c.1.1.2.3.3.4s.1.2.2.2c-.1-.2-.1-.1 0 0 .4.6.8 1.2 1.2 1.8.2.3.3.6.5.9.1.2.2.4.2.5 0-.1-.1-.2 0 0 0 .1.1.2.1.3.3.7 1 1.3 1.8 1 1 .1 1.6-.7 1.3-1.5z" fill="#617a05"/><path d="m354.3 115.3c-1.4.1-2.7.5-3.8 1.2.1-.4.2-.9.1-1.4-.2-3.2-3.5-5.5-7.3-5.3-.9.1-1.8.3-2.6.6-1.2-2-3.2-3.2-5.3-2.9-1.3.1-2.4.8-3.3 1.8-2.1-2.2-5.3-3.5-8.6-3.1-4.2.5-7.5 3.4-8.7 7.2-2.5-1.4-5.6-1.2-7.9.8-1.5 1.4-2.3 3.2-2.2 5.1-3.9.2-6.8 3-6.7 6.1.2 3.2 3.5 5.5 7.3 5.3 1.3-.1 2.5-.5 3.6-1 1 2.4 3.8 4 7 3.8 2.1-.1 3.9-1 5.1-2.2 1.3 1.7 3.7 2.8 6.4 2.7.9-.1 1.7-.2 2.5-.5 1.2 2 3.8 3.3 6.7 3.1 3.6-.2 6.4-2.6 6.7-5.4 1.1.5 2.3.7 3.7.6 3.4-.2 6.1-2.3 6.6-4.9.5.1 1 .1 1.5 0 2-.1 3.8-.9 5.1-2.2v-7.3c-1.5-1.4-3.6-2.2-5.9-2.1z" fill="#6f8e00"/><path d="m16.8 122.2c-.4-3.5-1.5-6.8-3.6-9.7-.5-.6-1.3-1-2.1-.5-.6.4-1 1.4-.5 2.1.4.6.9 1.3 1.2 2 .2.4.4.7.5 1.1 0 0 .2.6.2.3.1.2.1.3.2.5.3.7.5 1.5.7 2.2.1.4.2.7.2 1.1 0 .2.1.4.1.6 0-.3 0 .3 0 .4.1.8.6 1.5 1.5 1.5.8-.1 1.7-.7 1.6-1.6z" fill="#617a05"/><path d="m40.5 137.9c0-.3 0-.6 0-.9 0-.2-.1.3 0 .1 0-.1 0-.2 0-.2 0-.1.1-.3.1-.4.1-.3.2-.6.3-.9 0 .1-.1.3 0 .1 0-.1.1-.1.1-.2.1-.1.2-.3.2-.4.2-.3.4-.5.5-.8 0 .1-.2.2-.1.1l.2-.2c.1-.1.2-.2.3-.4.1-.1.2-.2.3-.3l.2-.2c.2-.2 0 0 0 0 0-.1.3-.2.4-.3s.3-.2.4-.3c.7-.4 1-1.4.5-2.1s-1.3-.9-2.1-.5c-2.8 1.5-4.6 4.7-4.6 7.9 0 .8.7 1.5 1.5 1.5 1.1-.2 1.8-.8 1.8-1.6z" fill="#617a05"/><path d="m150.7 135.9c0-.1.2-.3 0 0 0 0 0-.1.1-.2s.1-.3.2-.4c.1-.3.3-.6.5-.8.2-.3.3-.5.5-.8 0-.1.1-.1.1-.2-.1.1-.2.2 0 .1.1-.1.2-.3.3-.4.4-.5.8-.9 1.3-1.3.1 0 .1-.1.2-.1-.2.1-.2.2-.1.1l.1-.1c.1-.1.2-.2.4-.3.3-.2.5-.4.8-.5.7-.4 1-1.4.5-2.1-.4-.7-1.3-.9-2.1-.5-2.6 1.5-4.6 3.8-5.7 6.6-.1.3 0 .9.2 1.2s.5.6.9.7.8.1 1.2-.2c.3-.1.4-.4.6-.8z" fill="#617a05"/><path d="m153.9 138.5c.3-.2.6-.3.9-.5 0 0 .6-.2.3-.1.1-.1.3-.1.4-.2.6-.2 1.3-.4 2-.6.3-.1.7-.2 1-.2.1 0 .3 0 .4-.1.2 0 .2 0 0 0h.3c.7-.1 1.4-.1 2-.1.8 0 1.5-.7 1.5-1.5s-.7-1.5-1.5-1.5c-3.1-.1-6.2.7-8.9 2.2-.7.4-1 1.4-.5 2.1s1.4.9 2.1.5z" fill="#617a05"/><path d="m280.9 135c1-.2 1.9-.7 2.6-1.3 0 .3 0 .7.1 1 .5 2.3 3.2 3.6 6 3 .7-.2 1.3-.4 1.8-.7 1.1 1.3 2.7 1.9 4.3 1.5.9-.3 1.7-.9 2.2-1.7 1.8 1.4 4.3 1.9 6.6 1.2 3-.8 5.1-3.4 5.5-6.3 2 .7 4.3.2 5.6-1.5.9-1.2 1.3-2.6 1-4 2.8-.6 4.6-3 4.1-5.3s-3.2-3.6-6-3c-1 .2-1.8.6-2.5 1.2-1-1.6-3.2-2.4-5.5-1.9-1.5.3-2.7 1.2-3.5 2.2-1.1-1.1-3-1.6-5-1.2-.6.1-1.2.4-1.7.7-1.1-1.3-3.1-1.9-5.2-1.5-2.6.6-4.4 2.6-4.2 4.8-.8-.2-1.8-.2-2.7 0-2.4.5-4.1 2.4-4.2 4.4-.4 0-.7.1-1.1.1-2.8.6-4.6 3-4.1 5.3.5 2.2 3.1 3.6 5.9 3z" fill="#78a302"/><path d="m178.4 151.8c1.8.2 3.7.4 5.5.6 69.5 7.6 128.9 22.7 176.1 38.3v-69.4c-41.7 1.7-90.1 7.2-142.8 20-13.3 3.2-26.3 6.8-38.8 10.5z" fill="#9fd856"/><path d="m348.1 205.2c.8-.9-1.3-1.5-2.4-1.9-.9-.3-1.9-.7-2.8-1s-1.9-.3-2.7 0c-.9.3-1.6 1.1-2.1 1.8-1 1.3-1.8 2.8-2.3 4.4 0 .1-.1.2 0 .2 0 .1.1.1.2.2 1.4.8 2.9 1.5 4.5 2.1.8.3 1.6.6 2.4.4.4-.1.8-.3 1.2-.6 1.8-1.3 2.4-3.8 4-5.6z" fill="#aece3a"/><path d="m335.6 207.3c2.8-.8 5.8-1.4 8.7-.8.3.1.4-.4.1-.5-3-.6-6-.1-8.9.8-.3.1-.2.6.1.5z" fill="#8aa51c"/><path d="m340.1 206.3c.5.6.9 1.3 1.2 2 .1.1.2.2.3.1s.1-.2.1-.3c-.3-.7-.8-1.4-1.3-2.1-.1-.1-.3-.1-.4 0 0 0 0 .2.1.3z" fill="#8aa51c"/><path d="m342.4 206.2c.1-.1.2-.3.3-.4s.2-.2.3-.4c.2-.3.5-.6.6-1 0 0 0 .1-.1.1s-.1 0-.2.1c.1 0 .2-.1.2-.2s-.1-.2-.2-.2-.2 0-.2.1-.1.1-.1.2 0 .1-.1.2c-.1.2-.2.3-.3.4-.2.3-.4.6-.7.9-.1.1 0 .3.1.3.2 0 .3 0 .4-.1z" fill="#8aa51c"/><path d="m322.4 213.8c-.4.8 1.2.7 2 .7.6 0 1.4.1 2 .1s1.3-.2 1.8-.6.8-1 1-1.7c.4-1.1.6-2.2.6-3.4 0-.1 0-.1 0-.2l-.1-.1c-1.1-.2-2.3-.4-3.4-.4-.6 0-1.2 0-1.7.3-.3.2-.5.4-.6.6-1 1.5-.9 3.2-1.6 4.7z" fill="#aece3a"/><path d="m328.8 209.5c-1.7.8-3.3 1.7-4.9 2.7-.3.2 0 .6.3.4 1.6-1 3.2-1.9 4.9-2.7.2-.1 0-.5-.3-.4z" fill="#8aa51c"/><path d="m325.7 211.4v.4.2.1.1c0 .3.1.5.1.8 0 .1.1.3.2.2.1 0 .3-.1.2-.2 0-.2 0-.5-.1-.7 0-.1 0-.3-.1-.4v-.1-.1c0-.1 0-.3-.2-.3.1-.2-.1-.2-.1 0z" fill="#8aa51c"/><path d="m341.4 201.2c-.7-2.2-3-3.4-5.2-2.7 0-.1 0-.1.1-.2.5-2.3-.9-4.5-3.2-5s-4.5.9-5 3.2v.3c-1.6-1.6-4.3-1.6-5.9 0s-1.6 4.3 0 6c.3.3.6.6 1 .8-1.9 1.2-2.5 3.6-1.4 5.6s3.7 2.8 5.7 1.6c.6-.3 1.1-.8 1.5-1.3.1.8.3 1.5.6 2.1 1.1 2 3.7 2.8 5.7 1.6 2-1.1 2.8-3.7 1.6-5.7-.1-.2-.3-.4-.4-.6.7.1 1.5 0 2.1-.2 2.3-.9 3.5-3.3 2.8-5.5zm-10.7 3.6c-.2.1-.3.2-.5.4-.1-.3-.2-.5-.3-.7-.3-.5-.7-.8-1.1-1.1.4-.4.7-1 .8-1.6.4.4.9.6 1.4.7s.9.1 1.4 0c-.1.6-.1 1.1 0 1.7 0 .1.1.2.1.3-.6-.1-1.2 0-1.8.3z" fill="#fff"/><circle cx="330.8" cy="203.2" fill="#ffec00" r="2.6"/><path d="m35.2 213.6c.8-.9-1.3-1.5-2.4-1.9-.9-.3-1.9-.7-2.8-1s-1.9-.3-2.7 0c-.9.3-1.6 1.1-2.1 1.8-1 1.3-1.8 2.8-2.3 4.4 0 .1-.1.2 0 .2 0 .1.1.1.2.2 1.4.8 2.9 1.5 4.5 2.1.8.3 1.6.6 2.4.4.4-.1.8-.3 1.2-.6 1.7-1.4 2.4-3.8 4-5.6z" fill="#aece3a"/><path d="m22.6 215.7c2.8-.8 5.8-1.4 8.7-.8.3.1.4-.4.1-.5-3-.6-6-.1-8.9.8-.3.1-.2.6.1.5z" fill="#8aa51c"/><path d="m27.1 214.7c.5.6.9 1.3 1.2 2 .1.1.2.2.3.1s.1-.2.1-.3c-.3-.7-.8-1.4-1.3-2.1-.1-.1-.3-.1-.4 0 0 0 0 .2.1.3z" fill="#8aa51c"/><path d="m29.4 214.5c.1-.1.2-.3.3-.4s.2-.2.3-.4c.2-.3.5-.6.6-1 0 0 0 .1-.1.1s-.1 0-.2.1c.1 0 .2-.1.2-.2s-.1-.2-.2-.2-.2 0-.2.1-.1.1-.1.2 0 .1-.1.2c-.1.2-.2.3-.3.4-.2.3-.4.6-.7.9-.1.1 0 .3.1.3.2.1.4 0 .4-.1z" fill="#8aa51c"/><path d="m9.4 222.2c-.4.8 1.2.7 2 .7.6 0 1.4.1 2 .1s1.3-.2 1.8-.6.8-1 1-1.7c.4-1.1.6-2.2.6-3.4 0-.1 0-.1 0-.2l-.1-.1c-1.1-.2-2.3-.4-3.4-.4-.6 0-1.2 0-1.7.3-.3.2-.5.4-.6.6-1 1.4-.9 3.2-1.6 4.7z" fill="#aece3a"/><path d="m15.8 217.9c-1.7.8-3.3 1.7-4.9 2.7-.3.2 0 .6.3.4 1.6-1 3.2-1.9 4.9-2.7.2-.1 0-.5-.3-.4z" fill="#8aa51c"/><path d="m12.7 219.7v.4.2.1.1c0 .3.1.5.1.8 0 .1.1.3.2.2.1 0 .3-.1.2-.2 0-.2 0-.5-.1-.7 0-.1 0-.3-.1-.4v-.1-.1c0-.1 0-.3-.3-.3.2-.2 0-.1 0 0z" fill="#8aa51c"/><path d="m28.4 209.6c-.7-2.2-3-3.4-5.2-2.7 0-.1 0-.1.1-.2.5-2.3-.9-4.5-3.2-5s-4.5.9-5 3.2v.3c-1.6-1.6-4.3-1.6-5.9 0s-1.6 4.3 0 6c.3.3.6.6 1 .8-1.9 1.2-2.5 3.6-1.4 5.6s3.7 2.8 5.7 1.6c.6-.3 1.1-.8 1.5-1.3.1.8.3 1.5.6 2.1 1.1 2 3.7 2.8 5.7 1.6 2-1.1 2.8-3.7 1.6-5.7-.1-.2-.3-.4-.4-.6.7.1 1.5 0 2.1-.2 2.3-.9 3.5-3.3 2.8-5.5zm-10.6 3.6c-.2.1-.3.2-.5.4-.1-.3-.2-.5-.3-.7-.3-.5-.7-.8-1.1-1.1.4-.4.7-1 .8-1.6.4.4.9.6 1.4.7s.9.1 1.4 0c-.1.6-.1 1.1 0 1.7 0 .1.1.2.1.3-.7-.1-1.3 0-1.8.3z" fill="#fff"/><circle cx="17.8" cy="211.6" fill="#ffec00" r="2.6"/><path d="m308.1 212.5c.7-.2-.3-1.1-.8-1.7-.4-.4-.8-.9-1.2-1.3s-.9-.7-1.5-.8-1.1.1-1.7.4c-.9.4-1.8 1-2.5 1.7l-.1.1v.1c.5.8 1.1 1.6 1.8 2.4.3.4.7.8 1.2.9.3.1.5 0 .8 0 1.5-.2 2.6-1.4 4-1.8z" fill="#aece3a"/><path d="m306.8 211.4c-1.5-.7-3.2-.8-4.8-.9v.5h.1c.3 0 .3-.5 0-.5h-.1c-.3 0-.3.5 0 .5 1.6.1 3.2.2 4.6.9.2.1.5-.3.2-.5z" fill="#8aa51c"/><path d="m304.3 210.7c-.4.1-.7.4-1 .6-.1.1-.3.3-.4.4s-.1.1-.2.2-.1.1-.1.1c-.1.1-.2.2-.1.3s.2.1.3.1c0 0 .1 0 .1-.1.1-.1.2-.2.1-.3s-.2-.1-.3-.1c0 0-.1 0-.1.1.1.1.2.3.3.4.3-.2.6-.5.9-.7.1-.1.3-.2.4-.3.1 0 .1-.1.2-.1 0 0 .1 0 .1-.1h.1c.1 0 .2-.2.2-.3-.2-.1-.4-.2-.5-.2z" fill="#8aa51c"/><path d="m315.8 204c-1.8-.4-3.5.7-4 2.5l-.1-.1c-1.4-1.3-3.5-1.2-4.7.2-1.3 1.4-1.2 3.5.2 4.7 0 0 .1.1.2.1-1.8.5-2.8 2.3-2.3 4.1s2.3 2.9 4.1 2.4c.3-.1.6-.2 1-.4.1 1.8 1.5 3.2 3.3 3.2 1.9 0 3.4-1.4 3.4-3.3 0-.5-.1-1.1-.3-1.6.6.2 1.1.4 1.7.4 1.9 0 3.4-1.4 3.4-3.3s-1.4-3.4-3.3-3.4c-.2 0-.4 0-.6 0 .3-.5.6-1 .7-1.5.3-1.8-.9-3.6-2.7-4zm-1.8 8.8c0 .2 0 .3.1.5-.2-.1-.4-.1-.6-.1-.4 0-.8.1-1.2.3-.1-.5-.4-.8-.8-1.2.4-.1.8-.3 1.1-.7.3-.3.4-.6.5-1 .3.3.7.5 1.2.6h.3c-.4.7-.6 1.1-.6 1.6z" fill="#fff"/><circle cx="313" cy="212.1" fill="#ffec00" r="2.1"/><path d="m33 226.8c.6-.2-.2-.9-.6-1.4-.3-.4-.7-.8-1-1.1s-.7-.6-1.2-.6c-.5-.1-.9.1-1.4.3-.8.3-1.5.8-2.1 1.4l-.1.1v.1c.4.7.9 1.4 1.5 2 .3.3.6.6 1 .7.2.1.4 0 .7 0 1.2-.2 2-1.1 3.2-1.5z" fill="#aece3a"/><path d="m31.9 225.9c-1.3-.6-2.6-.7-4-.8v.5h.1c.3 0 .3-.5 0-.5h-.1c-.3 0-.3.5 0 .5 1.3.1 2.6.1 3.8.7.2.2.5-.2.2-.4z" fill="#8aa51c"/><path d="m29.8 225.3c-.3.1-.6.3-.8.5-.1.1-.2.2-.4.3-.1 0-.1.1-.2.1s-.1 0-.1.1c-.1.1-.2.2-.1.3s.2.1.3.1h.1c.1-.1.2-.2.1-.3s-.2-.1-.3-.1h-.1c.1.1.2.3.3.4.3-.2.5-.4.7-.6.1-.1.1-.1.2-.1s.1 0 0 0c0 0 .1 0 .1-.1.1 0 .1-.1.2-.1h.1.1c.1 0 .2-.2.2-.3-.1-.1-.2-.2-.4-.2z" fill="#8aa51c"/><path d="m39.4 219.9c-1.5-.3-2.9.6-3.3 2l-.1-.1c-1.1-1-2.9-1-3.9.1s-1 2.9.1 3.9l.1.1c-1.5.4-2.3 1.9-1.9 3.4s1.9 2.4 3.4 2c.3-.1.5-.2.8-.3.1 1.5 1.2 2.6 2.7 2.7 1.5 0 2.8-1.2 2.8-2.7 0-.4-.1-.9-.2-1.3.5.2.9.3 1.4.3 1.5 0 2.8-1.2 2.8-2.7s-1.2-2.8-2.7-2.8c-.2 0-.3 0-.5 0 .3-.4.5-.8.6-1.3.3-1.5-.6-3-2.1-3.3zm-1.5 7.2v.4c-.2 0-.3-.1-.5-.1-.4 0-.7.1-1 .3-.1-.4-.3-.7-.6-1 .3-.1.6-.3.9-.5.2-.2.4-.5.4-.8.3.3.6.5 1 .5h.2c-.3.4-.4.8-.4 1.2z" fill="#fff"/><circle cx="37" cy="226.5" fill="#ffec00" r="1.7"/><path d="m221.3 242.7c-1.4.3-2.1 1.3-1.6 2.2h-.1c-1.5-.2-2.9.5-3.2 1.4-.3 1 .7 1.9 2.3 2h.2c-1 .7-.9 1.8.2 2.5s2.9.6 3.9-.1c.2-.1.3-.3.5-.5.8.8 2.5 1 3.7.5 1.3-.5 1.7-1.6.9-2.4-.2-.2-.5-.4-.9-.6.5-.1 1-.2 1.4-.3 1.3-.5 1.7-1.6.9-2.4s-2.5-1.1-3.8-.6c-.1.1-.3.1-.4.2 0-.3-.1-.6-.2-.9-.7-.9-2.3-1.4-3.8-1zm2.8 4.4c.1.1.2.1.3.2-.2 0-.3.1-.5.1-.3.1-.5.3-.7.5-.3-.2-.7-.3-1.1-.3.2-.2.4-.4.4-.6.1-.2 0-.4-.1-.6.4 0 .7 0 1.1-.1.1 0 .1 0 .2-.1.1.4.1.6.4.9z" fill="#fff"/><ellipse cx="223" cy="247.1" fill="#ffec00" rx="1.7" ry="1.1"/><path d="m181.1 157c-1.4.3-2.1 1.3-1.6 2.2h-.1c-1.5-.2-2.9.5-3.2 1.4-.3 1 .7 1.9 2.3 2h.2c-1 .7-.9 1.8.2 2.5s2.9.6 3.9-.1c.2-.1.3-.3.5-.5.8.8 2.5 1 3.7.5 1.3-.5 1.7-1.6.9-2.4-.2-.2-.5-.4-.9-.6.5-.1 1-.2 1.4-.3 1.3-.5 1.7-1.6.9-2.4s-2.5-1.1-3.8-.6c-.1.1-.3.1-.4.2 0-.3-.1-.6-.2-.9-.7-.9-2.3-1.3-3.8-1zm2.8 4.4c.1.1.2.1.3.2-.2 0-.3.1-.5.1-.3.1-.5.3-.7.5-.3-.2-.7-.3-1.1-.3.2-.2.4-.4.4-.6.1-.2 0-.4-.1-.6.4 0 .7 0 1.1-.1.1 0 .1 0 .2-.1.1.4.2.7.4.9z" fill="#fff"/><ellipse cx="182.8" cy="161.4" fill="#ffec00" rx="1.7" ry="1.1"/><path d="m168.9 163.4c-1.1.3-1.7 1.1-1.3 1.8h-.1c-1.2-.1-2.4.4-2.6 1.2s.6 1.5 1.8 1.6h.1c-.8.6-.7 1.5.2 2s2.3.5 3.2-.1c.1-.1.3-.2.4-.4.7.6 2 .8 3 .4s1.4-1.3.7-2c-.2-.2-.4-.4-.7-.5.4 0 .8-.1 1.1-.3 1-.4 1.4-1.3.7-2s-2-.9-3.1-.4c-.1 0-.2.1-.3.1 0-.3 0-.5-.2-.7-.5-.6-1.8-1-2.9-.7zm2.2 3.5.2.2c-.1 0-.3.1-.4.1-.2.1-.4.2-.6.4-.2-.1-.5-.2-.9-.2.2-.1.3-.3.4-.5 0-.2 0-.3 0-.5h.9c.1 0 .1 0 .2-.1-.1.3 0 .5.2.6z" fill="#fff"/><ellipse cx="170.2" cy="166.9" fill="#ffec00" rx="1.4" ry=".9"/><path d="m348.9 127c-1.4.3-2.1 1.3-1.6 2.2h-.1c-1.5-.2-2.9.5-3.2 1.4-.3 1 .7 1.9 2.3 2h.2c-1 .7-.9 1.8.2 2.5s2.9.6 3.9-.1c.2-.1.3-.3.5-.5.8.8 2.5 1 3.7.5 1.3-.5 1.7-1.6.9-2.4-.2-.2-.5-.4-.9-.6.5-.1 1-.2 1.4-.3 1.3-.5 1.7-1.6.9-2.4s-2.5-1.1-3.8-.6c-.1.1-.3.1-.4.2 0-.3-.1-.6-.2-.9-.8-.9-2.4-1.4-3.8-1zm2.7 4.4c.1.1.2.1.3.2-.2 0-.3.1-.5.1-.3.1-.5.3-.7.5-.3-.2-.7-.3-1.1-.3.2-.2.4-.4.4-.6.1-.2 0-.4-.1-.6.4 0 .7 0 1.1-.1.1 0 .1 0 .2-.1.1.4.2.6.4.9z" fill="#eaeaea"/><ellipse cx="350.5" cy="131.4" fill="#ffd400" rx="1.7" ry="1.1"/><path d="m349.5 173.4c-1.4.3-2.1 1.3-1.6 2.2h-.1c-1.5-.2-2.9.5-3.2 1.4-.3 1 .7 1.9 2.3 2h.2c-1 .7-.9 1.8.2 2.5s2.9.6 3.9-.1c.2-.1.3-.3.5-.5.8.8 2.5 1 3.7.5 1.3-.5 1.7-1.6.9-2.4-.2-.2-.5-.4-.9-.6.5-.1 1-.2 1.4-.3 1.3-.5 1.7-1.6.9-2.4s-2.5-1.1-3.8-.6c-.1.1-.3.1-.4.2 0-.3-.1-.6-.2-.9-.7-.9-2.3-1.4-3.8-1zm2.8 4.4c.1.1.2.1.3.2-.2 0-.3.1-.5.1-.3.1-.5.3-.7.5-.3-.2-.7-.3-1.1-.3.2-.2.4-.4.4-.6.1-.2 0-.4-.1-.6.4 0 .7 0 1.1-.1.1 0 .1 0 .2-.1.1.4.2.6.4.9z" fill="#eaeaea"/><ellipse cx="351.2" cy="177.8" fill="#ffd400" rx="1.7" ry="1.1"/><path d="m338.6 132.1c-1 .2-1.5.9-1.1 1.5h-.1c-1-.1-2 .3-2.2 1s.5 1.3 1.6 1.4h.1c-.7.5-.6 1.3.2 1.7s2 .4 2.7-.1c.1-.1.2-.2.3-.3.6.5 1.7.7 2.6.3s1.2-1.1.6-1.7c-.2-.2-.4-.3-.6-.4.3 0 .7-.1.9-.2.9-.4 1.2-1.1.6-1.7s-1.7-.7-2.6-.4c-.1 0-.2.1-.3.1 0-.2 0-.4-.1-.6-.6-.5-1.7-.8-2.6-.6zm1.8 3.1c0 .1.1.1.2.1-.1 0-.2.1-.3.1-.2.1-.4.2-.5.3-.2-.1-.5-.2-.7-.2.2-.1.3-.3.3-.4s0-.3 0-.4h.8.1c-.1.1 0 .3.1.5z" fill="#eaeaea"/><ellipse cx="339.7" cy="135.2" fill="#ffd400" rx="1.2" ry=".7"/><path d="m272.9 157.6c-1 .2-1.5.9-1.1 1.5h-.1c-1-.1-2 .3-2.2 1s.5 1.3 1.6 1.4h.1c-.7.5-.6 1.3.2 1.7s2 .4 2.7-.1c.1-.1.2-.2.3-.3.6.5 1.7.7 2.6.3s1.2-1.1.6-1.7c-.2-.2-.4-.3-.6-.4.3 0 .7-.1.9-.2.9-.4 1.2-1.1.6-1.7s-1.7-.7-2.6-.4c-.1 0-.2.1-.3.1 0-.2 0-.4-.1-.6-.5-.5-1.6-.8-2.6-.6zm1.9 3c0 .1.1.1.2.1-.1 0-.2.1-.3.1-.2.1-.4.2-.5.3-.2-.1-.5-.2-.7-.2.2-.1.3-.3.3-.4s0-.3 0-.4h.8.1c-.1.2 0 .4.1.5z" fill="#eaeaea"/><ellipse cx="274.1" cy="160.7" fill="#ffd400" rx="1.2" ry=".7"/><path d="m339.1 171.9c-.7.2-1.1.7-.8 1.1 0 0 0 0-.1 0-.8-.1-1.5.2-1.6.7s.4.9 1.1 1h.1c-.5.4-.5.9.1 1.3.6.3 1.5.3 2-.1.1-.1.2-.1.2-.2.4.4 1.2.5 1.9.2s.9-.8.4-1.2c-.1-.1-.3-.2-.5-.3.3 0 .5-.1.7-.2.7-.3.9-.8.4-1.2-.4-.4-1.3-.5-1.9-.3-.1 0-.1.1-.2.1 0-.2 0-.3-.1-.4-.2-.5-1-.7-1.7-.5zm1.4 2.2.1.1c-.1 0-.2 0-.2.1-.2.1-.3.1-.4.3-.2-.1-.3-.1-.5-.1.1-.1.2-.2.2-.3s0-.2 0-.3h.6.1c-.1 0-.1.1.1.2z" fill="#eaeaea"/><ellipse cx="339.9" cy="174.1" fill="#ffd400" rx=".9" ry=".5"/><path d="m240.7 138.7c-1 .2-1.5.9-1.1 1.5h-.1c-1-.1-2 .3-2.2 1s.5 1.3 1.6 1.4h.1c-.7.5-.6 1.3.2 1.7s2 .4 2.7-.1l.3-.3c.6.5 1.7.7 2.6.3s1.2-1.1.6-1.7c-.2-.2-.4-.3-.6-.4.3 0 .7-.1.9-.2.9-.4 1.2-1.1.6-1.7s-1.7-.7-2.6-.4c-.1 0-.2.1-.3.1 0-.2 0-.4-.1-.6-.5-.5-1.6-.8-2.6-.6zm1.9 3c0 .1.1.1.2.1-.1 0-.2.1-.3.1-.2.1-.4.2-.5.3-.2-.1-.5-.2-.7-.2.2-.1.3-.3.3-.4s0-.3 0-.4h.8.1c-.1.2-.1.4.1.5z" fill="#eaeaea"/><ellipse cx="241.9" cy="141.7" fill="#ffd400" rx="1.2" ry=".7"/><path d="m28.1 153.7c-1.4.3-2.1 1.3-1.6 2.2h-.1c-1.5-.2-2.9.5-3.2 1.4-.3 1 .7 1.9 2.3 2h.2c-1 .7-.9 1.8.2 2.5s2.9.6 3.9-.1c.2-.1.3-.3.5-.5.8.8 2.5 1 3.7.5 1.3-.5 1.7-1.6.9-2.4-.2-.2-.5-.4-.9-.6.5-.1 1-.2 1.4-.3 1.3-.5 1.7-1.6.9-2.4s-2.5-1.1-3.8-.6c-.1.1-.3.1-.4.2 0-.3-.1-.6-.2-.9-.7-.9-2.3-1.3-3.8-1zm2.8 4.4c.1.1.2.1.3.2-.2 0-.3.1-.5.1-.3.1-.5.3-.7.5-.3-.2-.7-.3-1.1-.3.2-.2.4-.4.4-.6.1-.2 0-.4-.1-.6.4 0 .7 0 1.1-.1.1 0 .1 0 .2-.1.1.4.1.7.4.9z" fill="#fff"/><ellipse cx="29.8" cy="158.1" fill="#ffec00" rx="1.7" ry="1.1"/><path d="m236.3 236.1c-1.8.4-2.8 1.7-2.1 2.9-.1 0-.1 0-.2 0-2-.2-3.8.6-4.2 1.9-.3 1.3 1 2.4 2.9 2.7h.2c-1.3.9-1.2 2.4.3 3.2 1.5.9 3.8.8 5.1-.2.2-.2.5-.4.6-.6 1.1 1 3.2 1.3 4.8.6 1.7-.7 2.2-2.1 1.1-3.2-.3-.3-.7-.6-1.2-.8.6-.1 1.3-.2 1.8-.4 1.7-.7 2.2-2.1 1.1-3.2s-3.3-1.4-5-.7c-.2.1-.3.1-.5.2 0-.4-.1-.8-.3-1.1-.4-1.2-2.5-1.8-4.4-1.3zm3.6 5.7.3.3c-.2 0-.4.1-.6.2-.4.2-.7.4-.9.6-.4-.2-.9-.3-1.4-.4.3-.2.5-.5.6-.8s0-.5-.1-.7c.5.1 1 0 1.4-.1.1 0 .2-.1.3-.1 0 .3.1.7.4 1z" fill="#fff"/><ellipse cx="238.5" cy="241.8" fill="#ffec00" rx="2.2" ry="1.4"/><g fill="#adcc3a"><path d="m246.7 166.7c.3-1.5.6-3 1.1-4.4.2-.7-.3-1.7-1-1.8-.8-.2-1.6.3-1.8 1-.5 1.4-.9 2.9-1.1 4.4-.1.4-.1.8.2 1.2.2.3.5.6.9.7s.8.1 1.2-.2c.1-.2.4-.5.5-.9z"/><path d="m252 167.8c.8-1.6 1.8-3.2 2.9-4.7.2-.3.2-.8.2-1.2-.1-.3-.4-.7-.7-.9s-.8-.3-1.2-.2-.6.4-.9.7c-1.1 1.5-2.1 3-2.9 4.7-.4.7-.2 1.7.5 2.1.8.4 1.7.3 2.1-.5z"/><path d="m92.3 223.8c-.4-1.7-.8-3.3-1.2-5-.2-.8-1.1-1.3-1.8-1-.8.3-1.2 1-1 1.8.4 1.7.8 3.3 1.2 5 .2.8 1.1 1.3 1.8 1 .7-.2 1.2-.9 1-1.8z"/><path d="m96.1 223.3c.4-1.4.7-2.8 1.1-4.2.2-.8-.3-1.7-1-1.8-.8-.2-1.6.2-1.8 1-.4 1.4-.7 2.8-1.1 4.2-.2.8.3 1.7 1 1.8.8.2 1.6-.2 1.8-1z"/><path d="m277.6 224c-.1-2.2-.1-4.4.1-6.5.1-.8-.7-1.5-1.5-1.5-.9 0-1.4.7-1.5 1.5-.2 2.2-.2 4.4-.1 6.5 0 .8.7 1.5 1.5 1.5.8-.1 1.6-.7 1.5-1.5z"/><path d="m282.8 223.6c.2-1 .6-1.9.9-2.8 0-.1 0-.1-.1.1 0-.1.1-.1.1-.2.1-.1.1-.2.2-.4s.2-.4.3-.6c.2-.4.5-.9.7-1.3.4-.7.2-1.7-.5-2.1s-1.6-.2-2.1.5c-1.1 1.8-1.9 3.8-2.4 5.9-.2.8.3 1.7 1 1.8.8.3 1.7-.1 1.9-.9z"/><path d="m184.6 227.3c.2.1.3.2.4.3-.1-.1-.2-.2-.3-.2.4.3.7.6 1 1-.1-.1-.2-.2-.2-.3.3.3.5.7.7 1.1.1.2.2.3.4.4.1.1.3.2.5.3.4.1.8.1 1.2-.2.3-.2.6-.5.7-.9 0-.1 0-.3.1-.4 0-.3-.1-.5-.2-.8-.3-.6-.7-1.1-1.1-1.6s-1-.9-1.5-1.3c-.3-.2-.8-.3-1.2-.2-.3.1-.7.4-.9.7s-.3.8-.2 1.2c0 .4.2.7.6.9z"/><path d="m194.4 228.1c0-1.8 0-3.7 0-5.5 0-.8-.7-1.5-1.5-1.5s-1.5.7-1.5 1.5v5.5c0 .8.7 1.5 1.5 1.5s1.5-.6 1.5-1.5z"/><path d="m2.9 164c.4.3.8.7 1.1 1 .2.2.4.4.5.6.1.1.2.2.2.3s.1.1.1.2c-.1-.1-.2-.3-.1-.1.6.8 1.1 1.7 1.5 2.6.1.3.6.6.9.7.4.1.8.1 1.2-.2.3-.2.6-.5.7-.9s0-.8-.2-1.2c-.9-2-2.3-3.8-3.9-5.2-.3-.3-.6-.4-1.1-.4-.4 0-.8.2-1.1.4-.3.6-.4 1.7.2 2.2z"/><path d="m9.9 161.7c.2 1.4.5 2.8.7 4.2.1.3.4.7.7.9s.8.3 1.2.2.7-.3.9-.7.2-.7.2-1.2c-.2-1.4-.5-2.8-.7-4.2-.1-.3-.4-.7-.7-.9s-.8-.3-1.2-.2-.7.3-.9.7c-.2.5-.2.8-.2 1.2z"/><path d="m295.2 187.6c.3-1 .6-2.1.8-3.1.1-.4 0-.8-.2-1.2-.2-.3-.5-.6-.9-.7s-.8-.1-1.2.2c-.3.2-.6.5-.7.9-.3 1-.6 2.1-.8 3.1-.1.4 0 .8.2 1.2.2.3.5.6.9.7s.8.1 1.2-.2c.4-.2.6-.5.7-.9z"/><path d="m300.4 190.1c1-1.2 2.1-2.2 3.3-3.2-.1.1-.2.2-.3.2.4-.3.7-.6 1.1-.8.3-.2.6-.5.7-.9s.1-.8-.2-1.2c-.4-.7-1.4-1-2.1-.5-1.8 1.2-3.4 2.6-4.7 4.2-.3.3-.4.6-.4 1.1 0 .4.2.8.4 1.1.3.3.7.5 1.1.4.4 0 .8-.1 1.1-.4z"/><path d="m134.4 244.7c-.4-1.9-.9-3.8-1.5-5.7-.2-.7-1.1-1.3-1.8-1-.8.2-1.3 1-1 1.8.6 1.9 1.1 3.8 1.5 5.7.2.8 1.1 1.3 1.8 1 .8-.2 1.2-1 1-1.8z"/><path d="m139 244.2c.3-1.1.6-2.1 1-3.2.1-.4 0-.8-.2-1.2-.2-.3-.5-.6-.9-.7-.8-.2-1.6.2-1.8 1-.3 1.1-.6 2.1-1 3.2-.1.4 0 .8.2 1.2.2.3.5.6.9.7.8.2 1.6-.2 1.8-1z"/><path d="m170.8 186.9c-.1-1-.3-2.1-.4-3.1 0-.2 0-.4-.1-.6s-.2-.3-.3-.5c-.3-.3-.7-.5-1.1-.4-.4 0-.8.1-1.1.4-.2.3-.5.7-.4 1.1.1 1 .3 2.1.4 3.1 0 .2 0 .4.1.6s.2.3.3.5c.3.3.7.5 1.1.4.4 0 .8-.1 1.1-.4s.5-.7.4-1.1z"/><path d="m175.3 187.2c0-.4 0-.8.1-1.2 0 .1 0 .3-.1.4.1-.7.3-1.4.5-2 .1-.3-.1.3 0 0 0-.1.1-.2.1-.2.1-.2.2-.3.2-.5.2-.3.4-.6.6-.9s.2-.8.2-1.2c-.1-.3-.4-.7-.7-.9s-.8-.3-1.2-.2-.6.4-.9.7c-1.3 1.7-1.9 3.8-1.9 5.9 0 .8.7 1.5 1.5 1.5.9 0 1.6-.6 1.6-1.4z"/><path d="m158.4 158.2c.1-2-.1-3.9-.5-5.9-.5.6-1 1.3-1.4 1.9-.3-.1-.3-.1-.2 0-.1 0-.2-.1-.3-.2s-.2-.2-.2-.3c.1.1.1.1-.1-.2.2.8 1.1 1.3 1.8 1 .8-.2 1.3-1 1-1.8-.3-1-1.1-1.6-2.1-1.6-.5 0-.9.2-1.2.6s-.4.8-.3 1.3c0 .2.1.4.1.7 0 .2.1.5.1.7 0-.2 0-.3 0-.1v.2.3c0 .2 0 .5.1.7.1.9.1 1.8 0 2.7 0 .8.7 1.5 1.5 1.5 1 0 1.6-.6 1.7-1.5z"/><path d="m163.2 157c.2-1.2.5-2.3.9-3.4.1-.3 0-.9-.2-1.2s-.5-.6-.9-.7-.8-.1-1.2.2c-.1.1-.2.2-.3.2-.2.2-.3.4-.4.7-.4 1.1-.7 2.2-.9 3.4-.1.2-.1.4 0 .6 0 .2.1.4.2.6.2.3.5.6.9.7s.8.1 1.2-.2c.3-.2.6-.5.7-.9z"/></g><path d="m267.3 137.1c0-2-.6-4.1-1.8-5.7-.2-.3-.5-.6-.9-.7s-.8-.1-1.2.2c-.3.2-.6.5-.7.9s-.1.8.2 1.2c.4.5.7 1.1 1 1.7-.1-.1-.1-.2-.2-.4.3.6.5 1.3.6 2 0-.1 0-.3-.1-.4.1.4.1.8.1 1.2 0 .8.7 1.5 1.5 1.5s1.4-.7 1.5-1.5z" fill="#86bc39"/><path d="m272.3 136.2c.2-.9.3-1.7.5-2.6.1-.4.1-.8-.2-1.2-.2-.3-.5-.6-.9-.7s-.8-.1-1.2.2c-.3.2-.6.5-.7.9-.2.9-.3 1.7-.5 2.6-.1.4-.1.8.2 1.2.2.3.5.6.9.7s.8.1 1.2-.2c.3-.2.6-.5.7-.9z" fill="#86bc39"/><path d="m310.1 146.9-.1-.1c.1.1.2.2.2.3-.3-.4-.6-.9-.8-1.4.1.1.1.2.2.4-.2-.5-.3-1-.4-1.5 0 .1 0 .3.1.4 0-.1 0-.1 0-.2 0-.4-.1-.8-.4-1.1s-.7-.5-1.1-.4c-.4 0-.8.1-1.1.4s-.5.7-.4 1.1c.1.7.2 1.5.5 2.2.2.4.3.8.5 1.1.2.4.5.7.8 1.1.2.3.7.4 1.1.4s.8-.2 1.1-.4c.3-.3.5-.7.4-1.1 0-.1 0-.3-.1-.4-.2-.4-.3-.6-.5-.8z" fill="#86bc39"/><path d="m315.6 148.8c-.1-.8 0-1.6.1-2.4 0 .1 0 .3-.1.4.1-.5.2-1 .3-1.5.1-.4 0-.8-.2-1.2-.2-.3-.5-.6-.9-.7-.8-.2-1.6.2-1.8 1-.4 1.4-.5 2.9-.4 4.3 0 .4.1.8.4 1.1s.7.5 1.1.4c.4 0 .8-.1 1.1-.4.3-.2.5-.6.4-1z" fill="#86bc39"/><path d="m345.5 161.1c-.8-1.7-1.6-3.4-2.4-5.2-.3-.7-1.4-1-2.1-.5s-.9 1.3-.5 2.1c.8 1.7 1.6 3.4 2.4 5.2.3.7 1.4 1 2.1.5s.9-1.3.5-2.1z" fill="#86bc39"/><path d="m349.6 161.4c0-1.2 0-2.4 0-3.7 0-.4-.2-.8-.4-1.1-.3-.3-.7-.5-1.1-.4-.8 0-1.5.7-1.5 1.5v3.7c0 .4.2.8.4 1.1.3.3.7.5 1.1.4.8-.1 1.5-.7 1.5-1.5z" fill="#86bc39"/><path d="m217.3 146.2c-.1-1.6-.5-3.2-1.3-4.7-.2-.3-.6-.6-.9-.7-.4-.1-.8-.1-1.2.2-.7.5-.9 1.3-.5 2.1.1.2.2.4.3.6-.1-.1-.1-.2-.2-.4.3.8.6 1.6.7 2.5 0-.1 0-.3-.1-.4 0 .3.1.5.1.8 0 .4.2.8.4 1.1.3.3.7.5 1.1.4.4 0 .8-.1 1.1-.4s.5-.7.5-1.1z" fill="#86bc39"/><path d="m222.8 145.2c0-1 0-1.9 0-2.9 0-.4-.2-.8-.4-1.1-.3-.3-.7-.5-1.1-.4-.4 0-.8.1-1.1.4s-.4.7-.4 1.1v2.9c0 .4.2.8.4 1.1.3.3.7.5 1.1.4.4 0 .8-.1 1.1-.4.2-.4.4-.7.4-1.1z" fill="#86bc39"/><path d="m286.5 158.2c.5.2.9.5 1.4.9-.1-.1-.2-.2-.3-.2.6.4 1.1.9 1.5 1.5.2.3.7.4 1.1.4s.8-.2 1.1-.4c.3-.3.5-.7.4-1.1 0-.1 0-.3-.1-.4-.1-.3-.2-.5-.4-.7-.4-.5-.8-1-1.3-1.4-.6-.5-1.2-.9-1.8-1.2-.4-.2-.8-.3-1.2-.2-.3.1-.7.4-.9.7s-.3.8-.2 1.2c.2.4.4.7.7.9z" fill="#86bc39"/><path d="m293.4 156c-.3 1.2-.4 2.5-.3 3.8 0 .4.1.8.4 1.1s.7.5 1.1.4c.4 0 .8-.1 1.1-.4s.5-.7.4-1.1c-.1-.8 0-1.5.1-2.3 0 .1 0 .3-.1.4 0-.4.1-.7.2-1.1s.1-.8-.2-1.2c-.2-.3-.5-.6-.9-.7s-.8-.1-1.2.2c-.2.2-.5.5-.6.9z" fill="#86bc39"/><path d="m84.8 36.9-26.8 22.9-.6 12.2 33.4-33z" fill="#56411b"/><path d="m30.5 82.2-30.5-26.1v8l32.6 31.2z" fill="#56411b"/><path d="m360 0v86" fill="none"/><path d="m356.8 18.4c-2.3 0-4.4.7-6.1 1.8-1.8-1.1-3.9-1.8-6.1-1.8-.6 0-1.1 0-1.7.1-1.9-4.6-7.7-8-14.5-8-8.4 0-15.2 5.1-15.2 11.4 0 1.6.4 3.2 1.3 4.5-2.5-1-5.3-1.6-8.4-1.6-9.2 0-16.6 5.1-16.6 11.4 0 2.3 1 4.4 2.6 6.2-.6.1-1.2.2-1.8.4-7.7 1.7-13.1 5.4-13.1 9.7 0 5.7 9.4 10.3 21.3 10.7 0 4.4 5.4 8 12 8 1.6 0 3.1-.2 4.4-.6 1.6 3.2 6.1 5.5 11.4 5.5 5.2 0 9.6-2.2 11.3-5.3 2 .9 4.4 1.5 6.9 1.5 5.8 0 10.6-2.8 11.7-6.4 1.1.8 2.4 1.5 3.8 1.8v-48.8c-1-.3-2.1-.5-3.2-.5z" fill="#89c605"/><path d="m350.4 76.9-.2 5.4 9.8-9.7v-3.9z" fill="#56411b"/><path d="m245.6 20.1c0-7.7-9.6-14.3-23.5-17.3-1.1-.2-2.1-.4-3.3-.6.6-.7 1.2-1.4 1.7-2.1h-185.8c-1.7 2.5-2.7 5.4-2.7 8.5 0 11.3 13.3 20.5 29.7 20.5 5.2 0 10.1-.9 14.3-2.5-1.5 2.1-2.4 4.6-2.4 7.2 0 7.9 8 14.4 17.8 14.4 4.8 0 9.2-1.5 12.4-4 2 6.6 10.7 11.5 21 11.5 4.6 0 8.9-1 12.4-2.7 3 5.6 10.9 9.6 20.2 9.6 9.5 0 17.5-4.1 20.4-9.9 2.5.7 5.1 1 8 1 11.9 0 21.5-6.4 21.5-14.4 0 0 0 0 0-.1 21.4-.6 38.3-8.9 38.3-19.1z" fill="#b2ef0a"/><path d="m157.13 91.37c-9.09 0-16.45 6.09-16.45 13.6 0 3.42 1.54 6.53 4.06 8.92l-2.94 2.94 3.47 3.47 3.59-3.59c2.43 1.17 5.25 1.86 8.27 1.86 9.08 0 16.45-6.09 16.45-13.6s-7.37-13.6-16.45-13.6z" fill="#fff"/><path d="m145.26 121.72-4.89-4.89 2.95-2.94c-2.36-2.55-3.65-5.68-3.65-8.92 0-8.05 7.83-14.6 17.45-14.6s17.45 6.55 17.45 14.6-7.83 14.6-17.45 14.6c-2.8 0-5.56-.57-8.05-1.66zm-2.06-4.89 2.06 2.06 3.39-3.39.64.31c2.38 1.15 5.09 1.76 7.83 1.76 8.52 0 15.45-5.65 15.45-12.6s-6.93-12.6-15.45-12.6-15.45 5.65-15.45 12.6c0 3 1.33 5.91 3.74 8.2l.75.71z" fill="#c3c3c3"/><path d="m164.32 98.39v-1.2l-10.17-.01v1.2l-.01 7.38c-.85-.54-2.03-.68-3.16-.26-1.77.66-2.75 2.4-2.19 3.9s2.44 2.19 4.21 1.53c1.44-.54 2.34-1.8 2.33-3.06h.01l.01-8.28 7.77.01-.01 6.17c-.85-.54-2.03-.68-3.16-.26-1.77.66-2.75 2.4-2.19 3.9s2.44 2.19 4.21 1.53c1.44-.54 2.34-1.8 2.33-3.06h.01z" fill="#4c4c4c"/><ellipse cx="150.45" cy="107.74" fill="#9b9b9b" rx="1.01" ry=".83" transform="matrix(.5634 -.8262 .8262 .5634 -23.3269 171.3452)"/><ellipse cx="159.23" cy="107.82" fill="#9b9b9b" rx="1.01" ry=".83" transform="matrix(.5634 -.8262 .8262 .5634 -19.5601 178.6342)"/></svg>