<svg enable-background="new 0 0 344 341" viewBox="0 0 344 341" xmlns="http://www.w3.org/2000/svg" xmlns:xlink="http://www.w3.org/1999/xlink"><radialGradient id="a" cx="529.5146" cy="316.4529" gradientTransform="matrix(183.2461 0 0 -189.6981 -96862.3047 60198.582)" gradientUnits="userSpaceOnUse" r=".8592"><stop offset="0" stop-color="#ffc500"/><stop offset="1" stop-color="#fff" stop-opacity="0"/></radialGradient><radialGradient id="b" cx="529.5481" cy="316.416" gradientTransform="matrix(189.6992 0 0 -183.2451 -100285.6875 58149.7539)" gradientUnits="userSpaceOnUse" r=".8592"><stop offset="0" stop-color="#ffc767"/><stop offset="1" stop-color="#df0000" stop-opacity="0"/></radialGradient><linearGradient id="c" gradientUnits="userSpaceOnUse" x1="139.1423" x2="205.2004" y1="147.787" y2="213.8451"><stop offset="0" stop-color="#ffd41f"/><stop offset=".3318" stop-color="#ffbe18"/><stop offset=".7303" stop-color="#ffaa12"/><stop offset="1" stop-color="#ffa310"/></linearGradient><path d="m169.2 168.1-42.2-157.5c13.8-3.7 27.9-5.5 42.2-5.5 14.2 0 28.4 1.9 42.2 5.5zm157.4-42.2c-7.4-27.6-22-52.8-42.2-73.1l-115.2 115.3zm-157.4 42.2 115.3 115.3c20.2-20.2 34.8-45.4 42.2-73.1zm0 0-42.2 157.4c13.8 3.7 27.9 5.5 42.2 5.5 14.2 0 28.4-1.9 42.2-5.5zm-115.3-115.3c-20.2 20.2-34.8 45.4-42.2 73.1l157.4 42.2zm115.3 115.3-157.5 42.2c7.4 27.6 22 52.8 42.2 73.1z" fill="url(#a)"/><path d="m169.2 168.1 157.4-42.2c3.7 13.8 5.5 27.9 5.5 42.2 0 14.2-1.9 28.4-5.5 42.2zm115.2-115.3c-20.2-20.2-45.4-34.8-73-42.2l-42.2 157.4zm-73 272.7c27.6-7.4 52.8-22 73.1-42.2l-115.3-115.2zm-42.2-157.4-115.3 115.2c20.2 20.2 45.4 34.8 73.1 42.2zm0 0-42.2-157.5c-27.6 7.4-52.8 22-73.1 42.2zm0 0-157.5-42.2c-3.7 13.8-5.5 27.9-5.5 42.2 0 14.2 1.9 28.4 5.5 42.2z" fill="url(#b)"/><path d="m204.1 231.2c-1.5 0-3-.4-4.3-1.1l-30-15.8c-.2-.1-.4-.1-.6-.1s-.4.1-.6.1l-30 15.8c-1.4.7-2.8 1.1-4.3 1.1-2.7 0-5.3-1.2-7.1-3.3s-2.5-4.8-2-7.5l5.7-33.4c.1-.4-.1-.8-.4-1.1l-24.4-23.9c-2.6-2.5-3.5-6.1-2.4-9.5s4-5.8 7.5-6.3l33.6-4.9c.4-.1.8-.3 1-.7l15-30.4c1.6-3.2 4.8-5.2 8.3-5.2s6.8 2 8.3 5.2l15 30.4c.2.4.6.6 1 .7l33.6 4.9c3.5.5 6.4 2.9 7.5 6.3s.2 7-2.4 9.5l-24.3 23.7c-.3.3-.4.7-.4 1.1l5.7 33.4c.5 2.7-.3 5.5-2 7.5-1.6 2.3-4.2 3.5-7 3.5z" fill="url(#c)"/><g fill="#fff"><path d="m169.2 109c1.9 0 3.8 1 4.7 3l15 30.4c.8 1.6 2.3 2.6 4 2.9l33.6 4.9c4.3.6 6.1 6 2.9 9l-24.3 23.7c-1.2 1.2-1.8 3-1.5 4.7l5.7 33.4c.6 3.4-2.1 6.2-5.2 6.2-.8 0-1.7-.2-2.5-.6l-30-15.8c-.8-.4-1.6-.6-2.5-.6s-1.7.2-2.5.6l-30 15.8c-.8.4-1.7.6-2.5.6-3.1 0-5.8-2.8-5.2-6.2l5.7-33.4c.3-1.7-.3-3.5-1.5-4.7l-24.3-23.7c-3.1-3.1-1.4-8.4 2.9-9l33.6-4.9c1.7-.3 3.2-1.3 4-2.9l15-30.4c1.1-2 3-3 4.9-3m0-8c-5.1 0-9.7 2.8-11.9 7.4l-14.4 29.1-32.2 4.7c-5 .7-9.2 4.2-10.7 9-1.6 4.8-.3 10.1 3.4 13.6l23.3 22.7-5.5 32c-.7 3.9.4 7.8 2.9 10.8s6.3 4.8 10.2 4.8c2.1 0 4.3-.5 6.2-1.5l28.8-15.1 28.8 15.1c1.9 1 4.1 1.5 6.2 1.5 3.9 0 7.6-1.7 10.2-4.8 2.5-3 3.6-6.9 2.9-10.8l-5.5-32 23.3-22.7c3.7-3.6 4.9-8.8 3.4-13.6s-5.7-8.3-10.7-9l-32.2-4.7-14.4-29.1c-2.5-4.6-7-7.4-12.1-7.4z"/><ellipse cx="145.6" cy="157.6" rx="12.5" ry="7.3" transform="matrix(.6717 -.7408 .7408 .6717 -68.959 159.6015)"/><ellipse cx="143.8" cy="173.3" rx="3.8" ry="2.4" transform="matrix(.6717 -.7408 .7408 .6717 -81.1694 163.3871)"/></g></svg>